<svg width="31" height="28" viewBox="0 0 31 28" fill="none" xmlns="http://www.w3.org/2000/svg">
<path d="M14.0994 6.18936C15.6761 7.27378 17.0739 5.46804 16.8521 3.7086C16.7734 3.10182 16.5491 2.54621 16.1723 2.12219C15.5568 1.42523 14.2735 1.35213 13.806 2.08807C13.0475 3.2724 12.7374 5.25116 14.0994 6.18936ZM9.76285 4.74428C11.4445 5.63131 12.6825 3.65255 12.2985 1.91505C12.1673 1.32045 11.8906 0.789205 11.4755 0.411487C10.7957 -0.212358 9.50762 -0.127067 9.10211 0.66736C8.44614 1.94429 8.31734 3.97179 9.76285 4.74428ZM2.36353 4.4811C1.61453 3.99859 0.429015 4.5737 0.130847 5.46073C-0.0504389 5.99928 -0.0385122 6.59876 0.135618 7.18605C0.653237 8.88944 2.72133 9.97873 3.77326 8.35576C4.67969 6.96673 3.57051 5.26578 2.36353 4.4811ZM7.16044 5.34619C8.15275 4.08632 7.22246 2.27327 6.12044 1.34725C5.43584 0.777021 4.24079 1.19129 3.8806 2.02958C3.66115 2.53402 3.62776 3.13106 3.74702 3.73053C4.10244 5.47048 6.0131 6.81077 7.16044 5.34619ZM14.3212 9.49866C13.7917 7.75628 11.8739 7.00084 10.5333 6.82783C8.5344 6.57195 6.36136 7.65881 5.37621 9.80327C4.98024 10.6659 4.41969 12.1866 4.95162 13.1589C5.6863 14.4919 7.53256 13.6389 8.4199 13.1564C9.47184 12.574 10.3091 12.0598 11.5185 12.2572L11.6473 12.2792C13.1763 12.4814 15.0774 11.9745 14.3212 9.49866ZM16.0148 19.39C15.2229 19.0464 14.202 19.8408 14.0708 20.7693C13.9921 21.3322 14.1089 21.9244 14.3761 22.4702C15.1513 24.0567 17.2981 24.7585 18.0137 22.9576C18.6292 21.4029 17.2886 19.9383 16.0148 19.39ZM20.8189 19.2852C21.5965 17.8206 20.3824 16.2123 19.1396 15.5251C18.3715 15.0986 17.2552 15.7615 17.0286 16.668C16.8926 17.2163 16.9547 17.8158 17.1717 18.3836C17.8014 20.0431 19.9101 20.9813 20.8189 19.2852ZM30.1408 15.8151C29.9619 15.2278 29.647 14.7258 29.2034 14.3798C28.4711 13.8144 27.1735 14.0142 26.8156 14.8428C26.2432 16.1806 26.2503 18.2252 27.765 18.8612C29.523 19.6069 30.6441 17.5209 30.1408 15.8151ZM23.3068 18.2983C25.0577 18.8588 25.9116 16.6558 25.2533 15.0085C25.0266 14.4431 24.6712 13.9655 24.2132 13.6706C23.4571 13.1832 22.2382 13.5195 21.983 14.3846C21.5774 15.7834 21.7945 17.8182 23.3068 18.2983ZM27.2212 20.9764C25.2342 19.7604 22.8345 20.1016 21.3174 21.4516C20.2989 22.3606 19.1229 24.0786 19.6358 25.8283C20.3633 28.3139 22.2167 27.6486 23.3712 26.6081L23.469 26.5155C24.3635 25.665 25.3391 25.6114 26.5294 25.4969C27.5289 25.3921 29.5302 25.0436 29.4061 23.5205C29.3203 22.4069 28.0202 21.4662 27.2212 20.9764Z" fill="black"/>
</svg>
