<svg width="40" height="40" viewBox="0 0 40 40" fill="none" xmlns="http://www.w3.org/2000/svg">
<path fill-rule="evenodd" clip-rule="evenodd" d="M5.71082 21.1236C5.47968 20.8922 5.34985 20.5785 5.34985 20.2514C5.34985 19.9243 5.47968 19.6106 5.71082 19.3792L15.5851 9.50491C15.6981 9.38364 15.8344 9.28638 15.9858 9.21892C16.1372 9.15146 16.3006 9.11518 16.4663 9.11226C16.6321 9.10934 16.7967 9.13982 16.9504 9.2019C17.1041 9.26398 17.2437 9.35638 17.3609 9.47358C17.4781 9.59079 17.5705 9.7304 17.6326 9.88409C17.6946 10.0378 17.7251 10.2024 17.7222 10.3681C17.7193 10.5339 17.683 10.6973 17.6155 10.8487C17.5481 11.0001 17.4508 11.1364 17.3295 11.2494L9.56179 19.0171L32.9144 19.0171C33.2418 19.0171 33.5557 19.1472 33.7872 19.3786C34.0187 19.6101 34.1487 19.9241 34.1487 20.2514C34.1487 20.5788 34.0187 20.8927 33.7872 21.1242C33.5557 21.3556 33.2418 21.4857 32.9144 21.4857L9.56179 21.4857L17.3295 29.2534C17.4508 29.3664 17.5481 29.5027 17.6155 29.6541C17.683 29.8055 17.7193 29.969 17.7222 30.1347C17.7251 30.3004 17.6946 30.465 17.6326 30.6187C17.5705 30.7724 17.4781 30.912 17.3609 31.0292C17.2437 31.1464 17.1041 31.2388 16.9504 31.3009C16.7967 31.363 16.6321 31.3935 16.4663 31.3906C16.3006 31.3876 16.1372 31.3514 15.9858 31.2839C15.8344 31.2164 15.6981 31.1192 15.5851 30.9979L5.71082 21.1236Z" fill="black"/>
</svg>
