<svg width="111" height="269" viewBox="0 0 111 269" fill="none" xmlns="http://www.w3.org/2000/svg">
<g clip-path="url(#clip0_215_10)">
<path d="M15.1349 153.251C14.5118 152.756 14.125 152.07 14.0504 151.309C13.9763 150.548 14.2175 149.737 14.8065 148.995C15.3925 148.257 16.2245 147.71 17.0673 147.465C17.906 147.221 18.804 147.266 19.468 147.794C20.132 148.321 20.3801 149.185 20.3327 150.057C20.285 150.934 19.9405 151.868 19.3548 152.606C18.7655 153.348 18.0303 153.767 17.2718 153.867C16.5145 153.967 15.7579 153.746 15.1349 153.251ZM23.3875 153.13C22.7644 152.635 22.3777 151.949 22.3031 151.188C22.2289 150.427 22.4702 149.616 23.0591 148.874C23.6452 148.136 24.4772 147.589 25.3199 147.343C26.1587 147.1 27.0567 147.145 27.7207 147.672C28.3847 148.2 28.6328 149.064 28.5854 149.936C28.5376 150.813 28.1928 151.747 27.6075 152.485C27.0182 153.227 26.283 153.646 25.5244 153.746C24.7672 153.846 24.0106 153.625 23.3875 153.13ZM17.9563 143.627C21.1962 146.2 26.0705 145.573 29.6617 142.785C31.2548 141.548 31.9899 139.448 31.1993 137.549C30.5717 136.039 29.3496 134.136 26.9842 132.258C24.6183 130.379 22.4877 129.62 20.8745 129.351C18.8458 129.012 16.9673 130.204 16.1241 132.035C14.2221 136.165 14.7167 141.055 17.9563 143.627ZM7.46961 140.492C8.09268 140.986 8.84924 141.207 9.60653 141.107C10.3651 141.007 11.1002 140.588 11.6892 139.847C12.2753 139.108 12.6197 138.174 12.6675 137.298C12.7148 136.426 12.4668 135.561 11.8028 135.034C11.1388 134.507 10.2408 134.461 9.40201 134.705C8.55928 134.95 7.72728 135.497 7.14158 136.235C6.55227 136.977 6.31102 137.788 6.3852 138.549C6.45974 139.31 6.84653 139.997 7.46961 140.492ZM9.22249 148.557C9.84557 149.052 10.6021 149.273 11.3594 149.172C12.118 149.072 12.8531 148.654 13.4421 147.912C14.0281 147.174 14.3726 146.239 14.4203 145.363C14.4677 144.491 14.2197 143.626 13.5557 143.099C12.8917 142.572 11.9936 142.526 11.1549 142.77C10.3122 143.015 9.48017 143.563 8.89446 144.3C8.30515 145.043 8.0639 145.854 8.13808 146.615C8.21262 147.375 8.59942 148.062 9.22249 148.557Z" fill="black"/>
</g>
<g clip-path="url(#clip1_215_10)">
<path d="M63.1349 31.2511C62.5118 30.7564 62.125 30.0696 62.0504 29.309C61.9763 28.5479 62.2175 27.7369 62.8065 26.9952C63.3925 26.257 64.2245 25.7097 65.0673 25.4645C65.906 25.2207 66.804 25.2663 67.468 25.7935C68.132 26.3207 68.3801 27.185 68.3327 28.0572C68.285 28.9336 67.9405 29.868 67.3548 30.6057C66.7655 31.3479 66.0303 31.7667 65.2718 31.8667C64.5145 31.9669 63.7579 31.7458 63.1349 31.2511ZM71.3875 31.13C70.7644 30.6353 70.3777 29.9486 70.3031 29.1879C70.2289 28.4268 70.4702 27.6158 71.0591 26.8741C71.6452 26.1359 72.4772 25.5886 73.3199 25.3435C74.1587 25.0996 75.0567 25.1452 75.7207 25.6724C76.3847 26.1996 76.6328 27.064 76.5854 27.9361C76.5376 28.8125 76.1928 29.7474 75.6075 30.4846C75.0182 31.2268 74.283 31.6456 73.5244 31.7456C72.7672 31.8458 72.0106 31.6247 71.3875 31.13ZM65.9563 21.6272C69.1962 24.1997 74.0705 23.5725 77.6617 20.7847C79.2548 19.5478 79.9899 17.448 79.1993 15.5486C78.5717 14.0389 77.3496 12.1357 74.9842 10.2576C72.6183 8.3792 70.4877 7.62032 68.8745 7.35092C66.8458 7.01185 64.9673 8.20386 64.1241 10.0354C62.2221 14.1652 62.7167 19.0551 65.9563 21.6272ZM55.4696 18.4916C56.0927 18.9863 56.8492 19.2073 57.6065 19.1071C58.3651 19.0072 59.1002 18.5884 59.6892 17.8466C60.2753 17.1085 60.6197 16.1741 60.6675 15.2977C60.7148 14.4255 60.4668 13.5612 59.8028 13.034C59.1388 12.5068 58.2408 12.4611 57.402 12.705C56.5593 12.9502 55.7273 13.4975 55.1416 14.2352C54.5523 14.9774 54.311 15.7884 54.3852 16.5495C54.4597 17.3101 54.8465 17.9969 55.4696 18.4916ZM57.2225 26.5568C57.8456 27.0515 58.6021 27.2726 59.3594 27.1724C60.118 27.0725 60.8531 26.6536 61.4421 25.9119C62.0281 25.1737 62.3726 24.2393 62.4203 23.363C62.4677 22.4908 62.2197 21.6265 61.5557 21.0993C60.8917 20.5721 59.9936 20.5264 59.1549 20.7703C58.3122 21.0154 57.4802 21.5627 56.8945 22.3004C56.3052 23.0427 56.0639 23.8536 56.1381 24.6147C56.2126 25.3754 56.5994 26.0621 57.2225 26.5568Z" fill="black"/>
</g>
<g clip-path="url(#clip2_215_10)">
<path d="M33.1349 260.251C32.5118 259.756 32.125 259.07 32.0504 258.309C31.9763 257.548 32.2175 256.737 32.8065 255.995C33.3925 255.257 34.2245 254.71 35.0673 254.465C35.906 254.221 36.804 254.266 37.468 254.794C38.132 255.321 38.3801 256.185 38.3327 257.057C38.285 257.934 37.9405 258.868 37.3548 259.606C36.7655 260.348 36.0303 260.767 35.2718 260.867C34.5145 260.967 33.7579 260.746 33.1349 260.251ZM41.3875 260.13C40.7644 259.635 40.3777 258.949 40.3031 258.188C40.2289 257.427 40.4702 256.616 41.0591 255.874C41.6452 255.136 42.4772 254.589 43.3199 254.343C44.1587 254.1 45.0567 254.145 45.7207 254.672C46.3847 255.2 46.6328 256.064 46.5854 256.936C46.5376 257.813 46.1928 258.747 45.6075 259.485C45.0182 260.227 44.283 260.646 43.5244 260.746C42.7672 260.846 42.0106 260.625 41.3875 260.13ZM35.9563 250.627C39.1962 253.2 44.0705 252.573 47.6617 249.785C49.2548 248.548 49.9899 246.448 49.1993 244.549C48.5717 243.039 47.3496 241.136 44.9842 239.258C42.6183 237.379 40.4877 236.62 38.8745 236.351C36.8458 236.012 34.9673 237.204 34.1241 239.035C32.2221 243.165 32.7167 248.055 35.9563 250.627ZM25.4696 247.492C26.0927 247.986 26.8492 248.207 27.6065 248.107C28.3651 248.007 29.1002 247.588 29.6892 246.847C30.2753 246.108 30.6197 245.174 30.6675 244.298C30.7148 243.426 30.4668 242.561 29.8028 242.034C29.1388 241.507 28.2408 241.461 27.402 241.705C26.5593 241.95 25.7273 242.497 25.1416 243.235C24.5523 243.977 24.311 244.788 24.3852 245.549C24.4597 246.31 24.8465 246.997 25.4696 247.492ZM27.2225 255.557C27.8456 256.052 28.6021 256.273 29.3594 256.172C30.118 256.072 30.8531 255.654 31.4421 254.912C32.0281 254.174 32.3726 253.239 32.4203 252.363C32.4677 251.491 32.2197 250.626 31.5557 250.099C30.8917 249.572 29.9936 249.526 29.1549 249.77C28.3122 250.015 27.4802 250.563 26.8945 251.3C26.3052 252.043 26.0639 252.854 26.1381 253.615C26.2126 254.375 26.5994 255.062 27.2225 255.557Z" fill="black"/>
</g>
<g clip-path="url(#clip3_215_10)">
<path d="M86.1349 136.251C85.5118 135.756 85.125 135.07 85.0504 134.309C84.9763 133.548 85.2175 132.737 85.8065 131.995C86.3925 131.257 87.2245 130.71 88.0673 130.465C88.906 130.221 89.804 130.266 90.468 130.794C91.132 131.321 91.3801 132.185 91.3327 133.057C91.285 133.934 90.9405 134.868 90.3548 135.606C89.7655 136.348 89.0303 136.767 88.2718 136.867C87.5145 136.967 86.7579 136.746 86.1349 136.251ZM94.3875 136.13C93.7644 135.635 93.3777 134.949 93.3031 134.188C93.2289 133.427 93.4702 132.616 94.0591 131.874C94.6452 131.136 95.4772 130.589 96.3199 130.343C97.1587 130.1 98.0567 130.145 98.7207 130.672C99.3847 131.2 99.6328 132.064 99.5854 132.936C99.5376 133.813 99.1928 134.747 98.6075 135.485C98.0182 136.227 97.283 136.646 96.5244 136.746C95.7672 136.846 95.0106 136.625 94.3875 136.13ZM88.9563 126.627C92.1962 129.2 97.0705 128.573 100.662 125.785C102.255 124.548 102.99 122.448 102.199 120.549C101.572 119.039 100.35 117.136 97.9842 115.258C95.6183 113.379 93.4877 112.62 91.8745 112.351C89.8458 112.012 87.9673 113.204 87.1241 115.035C85.2221 119.165 85.7167 124.055 88.9563 126.627ZM78.4696 123.492C79.0927 123.986 79.8492 124.207 80.6065 124.107C81.3651 124.007 82.1002 123.588 82.6892 122.847C83.2753 122.108 83.6197 121.174 83.6675 120.298C83.7148 119.426 83.4668 118.561 82.8028 118.034C82.1388 117.507 81.2408 117.461 80.402 117.705C79.5593 117.95 78.7273 118.497 78.1416 119.235C77.5523 119.977 77.311 120.788 77.3852 121.549C77.4597 122.31 77.8465 122.997 78.4696 123.492ZM80.2225 131.557C80.8456 132.052 81.6021 132.273 82.3594 132.172C83.118 132.072 83.8531 131.654 84.4421 130.912C85.0281 130.174 85.3726 129.239 85.4203 128.363C85.4677 127.491 85.2197 126.626 84.5557 126.099C83.8917 125.572 82.9936 125.526 82.1549 125.77C81.3122 126.015 80.4802 126.563 79.8945 127.3C79.3052 128.043 79.0639 128.854 79.1381 129.615C79.2126 130.375 79.5994 131.062 80.2225 131.557Z" fill="black"/>
</g>
<defs>
<clipPath id="clip0_215_10">
<rect width="27.8744" height="27.8744" fill="white" transform="translate(21.8301 161.162) rotate(-141.551)"/>
</clipPath>
<clipPath id="clip1_215_10">
<rect width="27.8744" height="27.8744" fill="white" transform="translate(69.8301 39.1621) rotate(-141.551)"/>
</clipPath>
<clipPath id="clip2_215_10">
<rect width="27.8744" height="27.8744" fill="white" transform="translate(39.8301 268.162) rotate(-141.551)"/>
</clipPath>
<clipPath id="clip3_215_10">
<rect width="27.8744" height="27.8744" fill="white" transform="translate(92.8301 144.162) rotate(-141.551)"/>
</clipPath>
</defs>
</svg>
