<svg width="32" height="31" viewBox="0 0 32 31" fill="none" xmlns="http://www.w3.org/2000/svg">
<path d="M13.5319 29.2769C15.1622 29.5341 16.826 29.5351 18.4568 29.28M13.5319 29.2769C10.0299 28.7221 6.84721 27.0064 4.55282 24.4349C2.25844 21.8634 0.999524 18.6028 1 15.2332C1.00059 12.5173 1.8197 9.85832 3.36068 7.56989C4.90166 5.28145 7.10019 3.45911 9.69687 2.31788C12.2935 1.17666 15.18 0.764181 18.0156 1.12912C20.8512 1.49406 23.5177 2.62119 25.7004 4.37751C27.883 6.13382 29.4908 8.44603 30.334 11.0413C31.1772 13.6366 31.2206 16.4066 30.4591 19.0245C29.6976 21.6425 28.163 23.999 26.0363 25.8162C23.9097 27.6333 21.2797 28.8352 18.4568 29.28M13.5319 29.2769L13.5303 21.574H10.4541C10.196 21.574 9.94853 21.4767 9.76606 21.3036C9.58359 21.1304 9.48108 20.8955 9.48108 20.6506V17.8219C9.48108 17.5769 9.58359 17.3421 9.76606 17.1689C9.94853 16.9957 10.196 16.8984 10.4541 16.8984H13.5303V12.0782C13.5303 10.8536 14.0428 9.67924 14.9552 8.81336C15.8675 7.94748 17.1049 7.46104 18.3951 7.46104H21.3303C21.7603 7.46104 22.1728 7.62319 22.4769 7.91181C22.781 8.20044 22.9519 8.5919 22.9519 9.00008V10.6007C22.9519 11.0089 22.781 11.4003 22.4769 11.6889C22.1728 11.9776 21.7603 12.1397 21.3303 12.1397H20.0784C19.6483 12.1397 19.2358 12.3019 18.9317 12.5905C18.6276 12.8791 18.4568 13.2706 18.4568 13.6788V16.8984H22.1816C22.3228 16.8984 22.4624 16.9276 22.5905 16.9839C22.7187 17.0402 22.8324 17.1223 22.9237 17.2246C23.0151 17.3268 23.0819 17.4467 23.1195 17.5758C23.1571 17.705 23.1647 17.8404 23.1416 17.9727L22.7362 20.2874C22.6733 20.6468 22.478 20.9733 22.1853 21.2089C21.8925 21.4445 21.5211 21.5739 21.1373 21.574H18.4568V29.28" stroke="#FFC400" stroke-width="1.5" stroke-linecap="round"/>
</svg>
