<svg width="38" height="38" viewBox="0 0 38 38" fill="none" xmlns="http://www.w3.org/2000/svg">
<circle cx="18.8759" cy="18.8759" r="18.8759" fill="white"/>
<path d="M18.1042 13.5359C19.0343 14.1927 19.8588 13.0991 19.728 12.0336C19.6815 11.6661 19.5493 11.3297 19.327 11.0729C18.9639 10.6508 18.207 10.6065 17.9312 11.0522C17.4837 11.7694 17.3008 12.9678 18.1042 13.5359ZM15.5462 12.6608C16.5382 13.198 17.2685 11.9997 17.0419 10.9474C16.9645 10.5873 16.8013 10.2656 16.5565 10.0369C16.1555 9.65907 15.3957 9.71072 15.1565 10.1918C14.7696 10.9651 14.6936 12.193 15.5462 12.6608ZM11.1816 12.5014C10.7398 12.2092 10.0405 12.5575 9.86461 13.0947C9.75767 13.4208 9.76471 13.7839 9.86742 14.1395C10.1728 15.1711 11.3927 15.8308 12.0132 14.8479C12.5478 14.0067 11.8936 12.9766 11.1816 12.5014ZM14.0112 13.0253C14.5965 12.2623 14.0477 11.1644 13.3977 10.6036C12.9939 10.2582 12.2889 10.5091 12.0765 11.0168C11.947 11.3223 11.9273 11.6838 11.9977 12.0469C12.2073 13.1006 13.3344 13.9123 14.0112 13.0253ZM18.2351 15.5401C17.9227 14.4849 16.7915 14.0274 16.0007 13.9226C14.8216 13.7676 13.5398 14.4258 12.9587 15.7245C12.7251 16.247 12.3945 17.1679 12.7082 17.7567C13.1416 18.5639 14.2307 18.0474 14.7541 17.7552C15.3746 17.4025 15.8685 17.0911 16.5818 17.2106L16.6578 17.2239C17.5597 17.3464 18.6811 17.0395 18.2351 15.5401ZM19.2341 21.5303C18.767 21.3222 18.1647 21.8033 18.0874 22.3656C18.0409 22.7065 18.1099 23.0651 18.2675 23.3957C18.7248 24.3564 19.9911 24.7814 20.4132 23.6908C20.7762 22.7493 19.9855 21.8623 19.2341 21.5303ZM22.0679 21.4668C22.5266 20.5799 21.8104 19.6058 21.0773 19.1897C20.6243 18.9314 19.9658 19.3328 19.8321 19.8818C19.7519 20.2139 19.7885 20.5769 19.9165 20.9208C20.288 21.9258 21.5318 22.494 22.0679 21.4668ZM27.5666 19.3653C27.4611 19.0096 27.2753 18.7056 27.0136 18.4961C26.5817 18.1537 25.8162 18.2747 25.6052 18.7765C25.2675 19.5867 25.2717 20.8248 26.1652 21.21C27.2022 21.6616 27.8635 20.3983 27.5666 19.3653ZM23.5354 20.8691C24.5682 21.2085 25.0719 19.8744 24.6836 18.8768C24.5499 18.5344 24.3403 18.2452 24.0701 18.0666C23.6241 17.7714 22.9051 17.9751 22.7545 18.499C22.5153 19.3461 22.6434 20.5784 23.5354 20.8691ZM25.8444 22.491C24.6723 21.7546 23.2568 21.9612 22.362 22.7788C21.7611 23.3292 21.0675 24.3697 21.37 25.4293C21.7991 26.9346 22.8924 26.5317 23.5734 25.9015L23.6311 25.8455C24.1587 25.3304 24.7342 25.2979 25.4363 25.2286C26.0259 25.1651 27.2064 24.9541 27.1332 24.0317C27.0826 23.3573 26.3157 22.7876 25.8444 22.491Z" fill="black"/>
</svg>
