<svg width="30" height="29" viewBox="0 0 30 29" fill="none" xmlns="http://www.w3.org/2000/svg">
<path fill-rule="evenodd" clip-rule="evenodd" d="M15 0.470703C10.926 0.470703 10.416 0.487785 8.8155 0.556115C7.2195 0.625868 6.129 0.866444 5.175 1.21806C4.17371 1.5751 3.2666 2.13524 2.517 2.85938C1.75396 3.57077 1.16372 4.43163 0.7875 5.38187C0.417 6.28724 0.1635 7.32214 0.0899999 8.83678C0.0164999 10.3557 0 10.8397 0 14.706C0 18.5723 0.0164999 19.0563 0.0899999 20.5752C0.1635 22.0898 0.417 23.1247 0.7875 24.0301C1.16372 24.9803 1.75396 25.8412 2.517 26.5526C3.2666 27.2767 4.17371 27.8369 5.175 28.1939C6.129 28.5455 7.2195 28.7861 8.8155 28.8559C10.416 28.9242 10.926 28.9413 15 28.9413C19.074 28.9413 19.584 28.9242 21.1845 28.8559C22.7805 28.7861 23.871 28.5455 24.825 28.1939C25.8263 27.8369 26.7334 27.2767 27.483 26.5526C28.246 25.8412 28.8363 24.9803 29.2125 24.0301C29.583 23.1247 29.8365 22.0898 29.91 20.5752C29.982 19.0563 30 18.5723 30 14.706C30 10.8397 29.982 10.3557 29.91 8.83678C29.8365 7.32214 29.583 6.28724 29.2125 5.38187C28.8363 4.43163 28.246 3.57077 27.483 2.85938C26.7334 2.13524 25.8263 1.5751 24.825 1.21806C23.871 0.866444 22.7805 0.625868 21.1845 0.556115C19.584 0.487785 19.074 0.470703 15 0.470703ZM15 3.0359C19.005 3.0359 19.479 3.05014 21.06 3.11847C22.524 3.18252 23.3175 3.41314 23.847 3.60816C24.546 3.86724 25.047 4.17615 25.572 4.67296C26.097 5.17119 26.421 5.64665 26.694 6.31002C26.898 6.81252 27.144 7.56557 27.21 8.95351C27.282 10.4553 27.297 10.9037 27.297 14.706C27.297 18.5068 27.282 18.9566 27.21 20.457C27.1425 21.8464 26.898 22.5994 26.694 23.102C26.4535 23.7203 26.0701 24.2797 25.572 24.739C25.047 25.2372 24.546 25.5447 23.847 25.8038C23.3175 25.9974 22.524 26.2309 21.0615 26.2935C19.4805 26.3618 19.0065 26.3761 15 26.3761C10.995 26.3761 10.5195 26.3618 8.94 26.2935C7.476 26.2294 6.6825 25.9974 6.153 25.8038C5.50142 25.5756 4.91199 25.2117 4.428 24.739C3.92987 24.2797 3.54648 23.7203 3.306 23.102C3.1005 22.5994 2.856 21.8464 2.79 20.4585C2.718 18.9566 2.703 18.5082 2.703 14.706C2.703 10.9052 2.718 10.4553 2.79 8.95493C2.8575 7.56557 3.1005 6.81252 3.306 6.31002C3.579 5.64665 3.9045 5.17119 4.428 4.67296C4.953 4.17472 5.454 3.86724 6.153 3.60816C6.6825 3.41314 7.476 3.1811 8.9385 3.11847C10.521 3.05014 10.9935 3.0359 15 3.0359ZM15 19.4506C13.6741 19.4506 12.4024 18.9507 11.4648 18.0609C10.5272 17.1711 10.0005 15.9643 10.0005 14.706C10.0005 13.4476 10.5272 12.2408 11.4648 11.351C12.4024 10.4612 13.6741 9.96136 15 9.96136C16.326 9.96136 17.5976 10.4612 18.5352 11.351C19.4728 12.2408 19.9995 13.4476 19.9995 14.706C19.9995 15.9643 19.4728 17.1711 18.5352 18.0609C17.5976 18.9507 16.326 19.4506 15 19.4506ZM15 7.39617C13.9885 7.39617 12.9869 7.58524 12.0524 7.95259C11.1179 8.31995 10.2688 8.85838 9.55351 9.53716C8.83827 10.2159 8.2709 11.0218 7.88382 11.9086C7.49673 12.7955 7.2975 13.746 7.2975 14.706C7.2975 15.6659 7.49673 16.6165 7.88382 17.5033C8.2709 18.3902 8.83827 19.196 9.55351 19.8748C10.2688 20.5536 11.1179 21.092 12.0524 21.4594C12.9869 21.8267 13.9885 22.0158 15 22.0158C17.0428 22.0158 19.002 21.2457 20.4465 19.8748C21.891 18.5039 22.7025 16.6447 22.7025 14.706C22.7025 12.7673 21.891 10.908 20.4465 9.53716C19.002 8.16631 17.0428 7.39617 15 7.39617ZM24.807 7.10719C24.807 7.33152 24.7604 7.55365 24.67 7.7609C24.5795 7.96816 24.4469 8.15647 24.2798 8.31509C24.1126 8.47372 23.9142 8.59955 23.6958 8.68539C23.4774 8.77124 23.2434 8.81542 23.007 8.81542C22.7706 8.81542 22.5366 8.77124 22.3182 8.68539C22.0998 8.59955 21.9014 8.47372 21.7342 8.31509C21.5671 8.15647 21.4345 7.96816 21.344 7.7609C21.2536 7.55365 21.207 7.33152 21.207 7.10719C21.207 6.65414 21.3966 6.21964 21.7342 5.89929C22.0718 5.57893 22.5296 5.39896 23.007 5.39896C23.4844 5.39896 23.9422 5.57893 24.2798 5.89929C24.6174 6.21964 24.807 6.65414 24.807 7.10719Z" fill="#FFC400"/>
</svg>
