<svg width="323" height="204" viewBox="0 0 323 204" fill="none" xmlns="http://www.w3.org/2000/svg">
<g clip-path="url(#clip0_215_6)">
<path d="M214.202 155.421C214.459 154.668 214.976 154.073 215.667 153.747C216.359 153.421 217.204 153.376 218.101 153.682C218.993 153.986 219.788 154.586 220.302 155.297C220.813 156.005 221.072 156.866 220.798 157.669C220.525 158.471 219.794 158.995 218.957 159.244C218.115 159.493 217.119 159.482 216.228 159.179C215.331 158.873 214.689 158.321 214.34 157.64C213.992 156.961 213.946 156.174 214.202 155.421ZM217.089 163.153C217.345 162.4 217.862 161.805 218.554 161.479C219.246 161.154 220.09 161.109 220.987 161.414C221.879 161.718 222.674 162.318 223.188 163.029C223.699 163.738 223.958 164.599 223.685 165.401C223.411 166.204 222.68 166.728 221.843 166.976C221.001 167.225 220.005 167.215 219.114 166.911C218.217 166.605 217.576 166.054 217.227 165.373C216.878 164.693 216.832 163.906 217.089 163.153ZM224.215 154.845C222.88 158.761 225.108 163.142 228.94 165.588C230.641 166.673 232.865 166.66 234.389 165.277C235.6 164.179 236.982 162.388 237.956 159.529C238.931 156.67 238.93 154.408 238.642 152.798C238.28 150.774 236.526 149.405 234.518 149.226C229.989 148.822 225.549 150.93 224.215 154.845ZM223.646 143.915C223.389 144.668 223.435 145.455 223.784 146.134C224.133 146.815 224.774 147.367 225.671 147.672C226.563 147.977 227.558 147.987 228.4 147.738C229.237 147.489 229.968 146.965 230.242 146.163C230.515 145.36 230.257 144.499 229.745 143.791C229.231 143.08 228.436 142.48 227.545 142.176C226.647 141.87 225.803 141.915 225.111 142.241C224.419 142.567 223.902 143.162 223.646 143.915ZM216.638 148.275C216.381 149.028 216.427 149.815 216.776 150.494C217.125 151.175 217.766 151.727 218.663 152.033C219.555 152.337 220.551 152.347 221.392 152.098C222.23 151.85 222.96 151.326 223.234 150.523C223.507 149.721 223.249 148.859 222.737 148.151C222.223 147.44 221.428 146.84 220.537 146.536C219.64 146.23 218.795 146.276 218.103 146.601C217.411 146.927 216.894 147.522 216.638 148.275Z" fill="black"/>
</g>
<g clip-path="url(#clip1_215_6)">
<path d="M136.637 116.5C137.106 115.857 137.777 115.443 138.534 115.338C139.292 115.234 140.112 115.443 140.876 116.001C141.637 116.557 142.218 117.367 142.496 118.199C142.773 119.027 142.764 119.927 142.263 120.611C141.763 121.296 140.91 121.578 140.036 121.566C139.159 121.553 138.211 121.246 137.451 120.69C136.685 120.131 136.238 119.413 136.107 118.659C135.977 117.907 136.168 117.142 136.637 116.5ZM137.088 124.741C137.557 124.098 138.228 123.685 138.985 123.58C139.743 123.475 140.563 123.684 141.327 124.243C142.088 124.799 142.668 125.608 142.947 126.44C143.224 127.269 143.215 128.168 142.714 128.852C142.214 129.537 141.36 129.819 140.487 129.807C139.609 129.794 138.662 129.487 137.901 128.932C137.136 128.372 136.688 127.655 136.558 126.901C136.428 126.148 136.619 125.383 137.088 124.741ZM146.366 118.934C143.925 122.274 144.747 127.12 147.676 130.596C148.975 132.139 151.103 132.789 152.969 131.924C154.453 131.236 156.305 129.939 158.087 127.5C159.87 125.061 160.543 122.902 160.748 121.279C161.005 119.239 159.739 117.409 157.875 116.64C153.673 114.905 148.807 115.594 146.366 118.934ZM149.08 108.33C148.611 108.973 148.42 109.738 148.55 110.49C148.681 111.244 149.128 111.962 149.893 112.521C150.654 113.077 151.602 113.384 152.479 113.397C153.353 113.409 154.206 113.127 154.706 112.442C155.207 111.758 155.216 110.858 154.939 110.03C154.661 109.198 154.08 108.388 153.32 107.833C152.555 107.273 151.735 107.065 150.977 107.169C150.22 107.274 149.549 107.688 149.08 108.33ZM141.091 110.404C140.622 111.047 140.431 111.811 140.562 112.564C140.692 113.318 141.14 114.036 141.904 114.595C142.665 115.151 143.613 115.458 144.49 115.47C145.364 115.483 146.217 115.2 146.718 114.516C147.218 113.831 147.228 112.932 146.95 112.104C146.672 111.272 146.092 110.462 145.331 109.906C144.566 109.347 143.746 109.139 142.989 109.243C142.231 109.348 141.561 109.762 141.091 110.404Z" fill="black"/>
</g>
<g clip-path="url(#clip2_215_6)">
<path d="M79.6371 78.4996C80.1065 77.8572 80.7772 77.4433 81.5343 77.3384C82.2918 77.2339 83.1118 77.4425 83.8765 78.0014C84.6375 78.5574 85.2176 79.3669 85.4963 80.1992C85.7735 81.0275 85.7637 81.9266 85.2635 82.6112C84.7632 83.2957 83.9095 83.5781 83.0362 83.5656C82.1586 83.553 81.2111 83.2461 80.4506 82.6904C79.6855 82.1312 79.2376 81.4134 79.1074 80.6594C78.977 79.9067 79.1677 79.1419 79.6371 78.4996ZM80.0879 86.7408C80.5573 86.0985 81.2281 85.6845 81.9851 85.5796C82.7427 85.4751 83.5626 85.6837 84.3273 86.2426C85.0883 86.7987 85.6685 87.6081 85.9471 88.4404C86.2243 89.2687 86.2146 90.1679 85.7143 90.8524C85.2141 91.5369 84.3604 91.8193 83.487 91.8069C82.6094 91.7942 81.6615 91.487 80.9015 90.9316C80.1363 90.3724 79.6884 89.6546 79.5583 88.9006C79.4279 88.148 79.6185 87.3832 80.0879 86.7408ZM89.3661 80.9341C86.9251 84.2743 87.7466 89.1196 90.6757 92.5965C91.9754 94.1388 94.1029 94.7895 95.9691 93.9236C97.4526 93.2361 99.3054 91.9389 101.087 89.5003C102.87 87.0613 103.543 84.902 103.748 83.2794C104.005 81.2387 102.739 79.4094 100.875 78.64C96.6729 76.9047 91.8066 77.5943 89.3661 80.9341ZM92.08 70.3305C91.6106 70.9728 91.42 71.7376 91.5504 72.4903C91.6806 73.2442 92.1284 73.9621 92.8931 74.5209C93.6541 75.077 94.6016 75.3838 95.4791 75.3965C96.3525 75.409 97.2062 75.1266 97.7065 74.4421C98.2067 73.7575 98.2164 72.8584 97.9392 72.03C97.6606 71.1978 97.0804 70.3883 96.3199 69.8326C95.5547 69.2734 94.7348 69.0648 93.9773 69.1693C93.2202 69.2742 92.5495 69.6881 92.08 70.3305ZM84.0913 72.4043C83.6219 73.0467 83.4313 73.8115 83.5616 74.5641C83.6918 75.3181 84.1397 76.0359 84.9044 76.5948C85.6654 77.1508 86.6128 77.4577 87.4904 77.4704C88.3638 77.4829 89.2175 77.2004 89.7177 76.5159C90.2179 75.8314 90.2277 74.9322 89.9505 74.1039C89.6718 73.2716 89.0917 72.4622 88.3312 71.9064C87.566 71.3473 86.746 71.1386 85.9885 71.2431C85.2314 71.348 84.5607 71.762 84.0913 72.4043Z" fill="black"/>
</g>
<g clip-path="url(#clip3_215_6)">
<path d="M134.637 39.4996C135.106 38.8572 135.777 38.4433 136.534 38.3384C137.292 38.2339 138.112 38.4425 138.876 39.0014C139.637 39.5574 140.218 40.3669 140.496 41.1992C140.773 42.0275 140.764 42.9266 140.263 43.6112C139.763 44.2957 138.91 44.5781 138.036 44.5656C137.159 44.553 136.211 44.2461 135.451 43.6904C134.685 43.1312 134.238 42.4134 134.107 41.6594C133.977 40.9067 134.168 40.1419 134.637 39.4996ZM135.088 47.7408C135.557 47.0985 136.228 46.6845 136.985 46.5796C137.743 46.4751 138.563 46.6837 139.327 47.2426C140.088 47.7987 140.668 48.6081 140.947 49.4404C141.224 50.2687 141.215 51.1679 140.714 51.8524C140.214 52.5369 139.36 52.8193 138.487 52.8069C137.609 52.7942 136.662 52.487 135.901 51.9316C135.136 51.3724 134.688 50.6546 134.558 49.9006C134.428 49.148 134.619 48.3832 135.088 47.7408ZM144.366 41.9341C141.925 45.2743 142.747 50.1196 145.676 53.5965C146.975 55.1388 149.103 55.7895 150.969 54.9236C152.453 54.2361 154.305 52.9389 156.087 50.5003C157.87 48.0613 158.543 45.902 158.748 44.2794C159.005 42.2387 157.739 40.4094 155.875 39.64C151.673 37.9047 146.807 38.5943 144.366 41.9341ZM147.08 31.3305C146.611 31.9728 146.42 32.7376 146.55 33.4903C146.681 34.2442 147.128 34.9621 147.893 35.5209C148.654 36.077 149.602 36.3838 150.479 36.3965C151.353 36.409 152.206 36.1266 152.706 35.4421C153.207 34.7575 153.216 33.8584 152.939 33.03C152.661 32.1978 152.08 31.3883 151.32 30.8326C150.555 30.2734 149.735 30.0648 148.977 30.1693C148.22 30.2742 147.549 30.6881 147.08 31.3305ZM139.091 33.4043C138.622 34.0467 138.431 34.8115 138.562 35.5641C138.692 36.3181 139.14 37.0359 139.904 37.5948C140.665 38.1508 141.613 38.4577 142.49 38.4704C143.364 38.4829 144.217 38.2004 144.718 37.5159C145.218 36.8314 145.228 35.9322 144.95 35.1039C144.672 34.2716 144.092 33.4622 143.331 32.9064C142.566 32.3473 141.746 32.1386 140.989 32.2431C140.231 32.348 139.561 32.762 139.091 33.4043Z" fill="black"/>
</g>
<g clip-path="url(#clip4_215_6)">
<path d="M61.6371 15.4998C62.1065 14.8575 62.7772 14.4435 63.5343 14.3387C64.2918 14.2341 65.1118 14.4428 65.8765 15.0016C66.6375 15.5577 67.2176 16.3672 67.4963 17.1994C67.7735 18.0277 67.7637 18.9269 67.2635 19.6114C66.7632 20.296 65.9095 20.5784 65.0362 20.5659C64.1586 20.5532 63.2111 20.2464 62.4506 19.6906C61.6855 19.1314 61.2376 18.4136 61.1074 17.6597C60.977 16.907 61.1677 16.1422 61.6371 15.4998ZM62.0879 23.7411C62.5573 23.0987 63.2281 22.6848 63.9851 22.5799C64.7427 22.4753 65.5626 22.684 66.3273 23.2428C67.0883 23.7989 67.6685 24.6084 67.9471 25.4406C68.2243 26.269 68.2146 27.1681 67.7143 27.8526C67.2141 28.5372 66.3604 28.8196 65.487 28.8071C64.6094 28.7944 63.6615 28.4872 62.9015 27.9318C62.1363 27.3727 61.6884 26.6548 61.5583 25.9009C61.4279 25.1482 61.6185 24.3834 62.0879 23.7411ZM71.3661 17.9343C68.9251 21.2745 69.7466 26.1198 72.6757 29.5967C73.9754 31.1391 76.1029 31.7897 77.9691 30.9238C79.4526 30.2364 81.3054 28.9392 83.0874 26.5006C84.8698 24.0615 85.5429 21.9023 85.7476 20.2796C86.0053 18.239 84.7391 16.4096 82.8753 15.6403C78.6729 13.9049 73.8066 14.5946 71.3661 17.9343ZM74.08 7.33071C73.6106 7.97306 73.42 8.73785 73.5504 9.49053C73.6806 10.2445 74.1284 10.9623 74.8931 11.5211C75.6541 12.0772 76.6016 12.3841 77.4791 12.3968C78.3525 12.4092 79.2062 12.1268 79.7065 11.4423C80.2067 10.7577 80.2164 9.85861 79.9392 9.03028C79.6606 8.19803 79.0804 7.38857 78.3199 6.83282C77.5547 6.27365 76.7348 6.065 75.9773 6.16954C75.2202 6.27443 74.5495 6.68836 74.08 7.33071ZM66.0913 9.40456C65.6219 10.0469 65.4313 10.8117 65.5616 11.5644C65.6918 12.3183 66.1397 13.0362 66.9044 13.595C67.6654 14.1511 68.6128 14.4579 69.4904 14.4706C70.3638 14.4831 71.2175 14.2007 71.7177 13.5161C72.2179 12.8316 72.2277 11.9325 71.9505 11.1041C71.6718 10.2719 71.0917 9.46242 70.3312 8.90667C69.566 8.3475 68.746 8.13885 67.9885 8.24339C67.2314 8.34828 66.5607 8.76222 66.0913 9.40456Z" fill="black"/>
</g>
<g clip-path="url(#clip5_215_6)">
<path d="M7.63708 18.4996C8.10648 17.8572 8.77723 17.4433 9.53429 17.3384C10.2918 17.2339 11.1118 17.4425 11.8765 18.0014C12.6375 18.5574 13.2176 19.3669 13.4963 20.1992C13.7735 21.0275 13.7637 21.9266 13.2635 22.6112C12.7632 23.2957 11.9095 23.5781 11.0362 23.5656C10.1586 23.553 9.21115 23.2461 8.45064 22.6904C7.68545 22.1312 7.23759 21.4134 7.10743 20.6594C6.97704 19.9067 7.16767 19.1419 7.63708 18.4996ZM8.08793 26.7408C8.55734 26.0985 9.22809 25.6845 9.98514 25.5796C10.7427 25.4751 11.5626 25.6837 12.3273 26.2426C13.0883 26.7987 13.6685 27.6081 13.9471 28.4404C14.2243 29.2687 14.2146 30.1679 13.7143 30.8524C13.2141 31.5369 12.3604 31.8193 11.487 31.8069C10.6094 31.7942 9.66153 31.487 8.9015 30.9316C8.1363 30.3724 7.68845 29.6546 7.55828 28.9006C7.4279 28.148 7.61853 27.3832 8.08793 26.7408ZM17.3661 20.9341C14.9251 24.2743 15.7466 29.1196 18.6757 32.5965C19.9754 34.1388 22.1029 34.7895 23.9691 33.9236C25.4526 33.2361 27.3054 31.9389 29.0874 29.5003C30.8698 27.0613 31.5429 24.902 31.7476 23.2794C32.0053 21.2387 30.7391 19.4094 28.8753 18.64C24.6729 16.9047 19.8066 17.5943 17.3661 20.9341ZM20.08 10.3305C19.6106 10.9728 19.42 11.7376 19.5504 12.4903C19.6806 13.2442 20.1284 13.9621 20.8931 14.5209C21.6541 15.077 22.6016 15.3838 23.4791 15.3965C24.3525 15.409 25.2062 15.1266 25.7065 14.4421C26.2067 13.7575 26.2164 12.8584 25.9392 12.03C25.6606 11.1978 25.0804 10.3883 24.3199 9.83258C23.5547 9.2734 22.7348 9.06476 21.9773 9.1693C21.2202 9.27418 20.5495 9.68812 20.08 10.3305ZM12.0913 12.4043C11.6219 13.0467 11.4313 13.8115 11.5616 14.5641C11.6918 15.3181 12.1397 16.0359 12.9044 16.5948C13.6654 17.1508 14.6128 17.4577 15.4904 17.4704C16.3638 17.4829 17.2175 17.2004 17.7177 16.5159C18.2179 15.8314 18.2277 14.9322 17.9505 14.1039C17.6718 13.2716 17.0917 12.4622 16.3312 11.9064C15.566 11.3473 14.746 11.1386 13.9885 11.2431C13.2314 11.348 12.5607 11.762 12.0913 12.4043Z" fill="black"/>
</g>
<g clip-path="url(#clip6_215_6)">
<path d="M269.925 122.048C270.243 121.318 270.807 120.768 271.523 120.501C272.24 120.233 273.086 120.258 273.954 120.637C274.818 121.014 275.56 121.677 276.014 122.428C276.465 123.176 276.652 124.056 276.313 124.833C275.974 125.61 275.202 126.072 274.347 126.25C273.488 126.429 272.497 126.337 271.633 125.96C270.764 125.581 270.171 124.978 269.879 124.271C269.588 123.565 269.607 122.777 269.925 122.048ZM272.163 129.992C272.481 129.263 273.045 128.713 273.761 128.445C274.477 128.178 275.323 128.203 276.191 128.581C277.055 128.958 277.798 129.621 278.251 130.373C278.703 131.121 278.889 132 278.55 132.778C278.211 133.555 277.44 134.017 276.585 134.195C275.726 134.374 274.734 134.281 273.871 133.905C273.002 133.526 272.408 132.923 272.117 132.216C271.825 131.509 271.845 130.721 272.163 129.992ZM279.951 122.302C278.297 126.094 280.156 130.643 283.773 133.398C285.377 134.619 287.596 134.79 289.228 133.538C290.526 132.544 292.051 130.874 293.258 128.105C294.466 125.336 294.652 123.082 294.498 121.454C294.304 119.406 292.669 117.897 290.683 117.552C286.203 116.775 281.604 118.51 279.951 122.302ZM280.287 111.361C279.969 112.091 279.949 112.879 280.241 113.585C280.532 114.292 281.126 114.895 281.994 115.274C282.858 115.65 283.85 115.743 284.709 115.564C285.564 115.386 286.336 114.924 286.674 114.147C287.013 113.37 286.827 112.49 286.376 111.742C285.922 110.991 285.179 110.327 284.316 109.951C283.447 109.572 282.601 109.547 281.885 109.814C281.169 110.082 280.605 110.632 280.287 111.361ZM272.943 115.128C272.625 115.857 272.605 116.645 272.897 117.351C273.188 118.058 273.782 118.661 274.65 119.04C275.514 119.417 276.506 119.509 277.365 119.33C278.22 119.152 278.991 118.69 279.33 117.913C279.669 117.136 279.483 116.256 279.031 115.508C278.578 114.757 277.835 114.094 276.972 113.717C276.103 113.338 275.257 113.313 274.541 113.581C273.825 113.848 273.261 114.398 272.943 115.128Z" fill="black"/>
</g>
<g clip-path="url(#clip7_215_6)">
<path d="M187.925 80.0477C188.243 79.3185 188.807 78.7682 189.523 78.5007C190.24 78.2335 191.086 78.2582 191.954 78.6368C192.818 79.0135 193.56 79.677 194.014 80.4284C194.465 81.1763 194.652 82.056 194.313 82.8331C193.974 83.6103 193.202 84.0721 192.347 84.2504C191.488 84.4295 190.497 84.3367 189.633 83.9602C188.764 83.5813 188.171 82.9785 187.879 82.2711C187.588 81.565 187.607 80.777 187.925 80.0477ZM190.163 87.9922C190.481 87.2629 191.045 86.7127 191.761 86.4452C192.477 86.1779 193.323 86.2027 194.191 86.5813C195.055 86.958 195.798 87.6215 196.251 88.3729C196.703 89.1208 196.889 90.0004 196.55 90.7776C196.211 91.5548 195.44 92.0166 194.585 92.1949C193.726 92.3739 192.734 92.2809 191.871 91.9046C191.002 91.5258 190.408 90.9229 190.117 90.2155C189.825 89.5094 189.845 88.7215 190.163 87.9922ZM197.951 80.3016C196.297 84.0938 198.156 88.6433 201.773 91.3975C203.377 92.6193 205.596 92.7902 207.228 91.5382C208.526 90.5437 210.051 88.8736 211.258 86.105C212.466 83.336 212.652 81.0819 212.498 79.4536C212.304 77.4059 210.669 75.8968 208.683 75.5525C204.203 74.7755 199.604 76.5099 197.951 80.3016ZM198.287 69.3613C197.969 70.0906 197.949 70.8786 198.241 71.5847C198.532 72.2921 199.126 72.8949 199.994 73.2735C200.858 73.6503 201.85 73.7431 202.709 73.564C203.564 73.3857 204.336 72.9239 204.674 72.1467C205.013 71.3696 204.827 70.4899 204.376 69.742C203.922 68.9906 203.179 68.3271 202.316 67.9507C201.447 67.5718 200.601 67.5471 199.885 67.8143C199.169 68.0818 198.605 68.6321 198.287 69.3613ZM190.943 73.1277C190.625 73.857 190.605 74.6449 190.897 75.351C191.188 76.0584 191.782 76.6613 192.65 77.0399C193.514 77.4166 194.506 77.5094 195.365 77.3304C196.22 77.1521 196.991 76.6903 197.33 75.9131C197.669 75.1359 197.483 74.2563 197.031 73.5084C196.578 72.7569 195.835 72.0935 194.972 71.717C194.103 71.3382 193.257 71.3134 192.541 71.5807C191.825 71.8482 191.261 72.3984 190.943 73.1277Z" fill="black"/>
</g>
<g clip-path="url(#clip8_215_6)">
<path d="M291.925 184.048C292.243 183.318 292.807 182.768 293.523 182.501C294.24 182.233 295.086 182.258 295.954 182.637C296.818 183.014 297.56 183.677 298.014 184.428C298.465 185.176 298.652 186.056 298.313 186.833C297.974 187.61 297.202 188.072 296.347 188.25C295.488 188.429 294.497 188.337 293.633 187.96C292.764 187.581 292.171 186.978 291.879 186.271C291.588 185.565 291.607 184.777 291.925 184.048ZM294.163 191.992C294.481 191.263 295.045 190.713 295.761 190.445C296.477 190.178 297.323 190.203 298.191 190.581C299.055 190.958 299.798 191.621 300.251 192.373C300.703 193.121 300.889 194 300.55 194.778C300.211 195.555 299.44 196.017 298.585 196.195C297.726 196.374 296.734 196.281 295.871 195.905C295.002 195.526 294.408 194.923 294.117 194.216C293.825 193.509 293.845 192.721 294.163 191.992ZM301.951 184.302C300.297 188.094 302.156 192.643 305.773 195.398C307.377 196.619 309.596 196.79 311.228 195.538C312.526 194.544 314.051 192.874 315.258 190.105C316.466 187.336 316.652 185.082 316.498 183.454C316.304 181.406 314.669 179.897 312.683 179.552C308.203 178.775 303.604 180.51 301.951 184.302ZM302.287 173.361C301.969 174.091 301.949 174.879 302.241 175.585C302.532 176.292 303.126 176.895 303.994 177.274C304.858 177.65 305.85 177.743 306.709 177.564C307.564 177.386 308.336 176.924 308.674 176.147C309.013 175.37 308.827 174.49 308.376 173.742C307.922 172.991 307.179 172.327 306.316 171.951C305.447 171.572 304.601 171.547 303.885 171.814C303.169 172.082 302.605 172.632 302.287 173.361ZM294.943 177.128C294.625 177.857 294.605 178.645 294.897 179.351C295.188 180.058 295.782 180.661 296.65 181.04C297.514 181.417 298.506 181.509 299.365 181.33C300.22 181.152 300.991 180.69 301.33 179.913C301.669 179.136 301.483 178.256 301.031 177.508C300.578 176.757 299.835 176.094 298.972 175.717C298.103 175.338 297.257 175.313 296.541 175.581C295.825 175.848 295.261 176.398 294.943 177.128Z" fill="black"/>
</g>
<defs>
<clipPath id="clip0_215_6">
<rect width="27.8744" height="27.8744" fill="white" transform="translate(209 164.384) rotate(-71.1792)"/>
</clipPath>
<clipPath id="clip1_215_6">
<rect width="27.8744" height="27.8744" fill="white" transform="translate(129 123.506) rotate(-53.842)"/>
</clipPath>
<clipPath id="clip2_215_6">
<rect width="27.8744" height="27.8744" fill="white" transform="translate(72 85.5056) rotate(-53.842)"/>
</clipPath>
<clipPath id="clip3_215_6">
<rect width="27.8744" height="27.8744" fill="white" transform="translate(127 46.5056) rotate(-53.842)"/>
</clipPath>
<clipPath id="clip4_215_6">
<rect width="27.8744" height="27.8744" fill="white" transform="translate(54 22.5059) rotate(-53.842)"/>
</clipPath>
<clipPath id="clip5_215_6">
<rect width="27.8744" height="27.8744" fill="white" transform="translate(0 25.5056) rotate(-53.842)"/>
</clipPath>
<clipPath id="clip6_215_6">
<rect width="27.8744" height="27.8744" fill="white" transform="translate(264 130.551) rotate(-66.4401)"/>
</clipPath>
<clipPath id="clip7_215_6">
<rect width="27.8744" height="27.8744" fill="white" transform="translate(182 88.5508) rotate(-66.4401)"/>
</clipPath>
<clipPath id="clip8_215_6">
<rect width="27.8744" height="27.8744" fill="white" transform="translate(286 192.551) rotate(-66.4401)"/>
</clipPath>
</defs>
</svg>
