<svg width="577" height="531" viewBox="0 0 577 531" fill="none" xmlns="http://www.w3.org/2000/svg">
<g clip-path="url(#clip0_215_5)">
<path d="M444.135 43.2511C443.512 42.7564 443.125 42.0696 443.051 41.309C442.976 40.5479 443.218 39.7369 443.807 38.9952C444.393 38.257 445.225 37.7097 446.067 37.4645C446.906 37.2207 447.804 37.2663 448.468 37.7935C449.132 38.3207 449.38 39.185 449.333 40.0572C449.285 40.9336 448.941 41.868 448.355 42.6057C447.766 43.3479 447.03 43.7667 446.272 43.8667C445.515 43.9669 444.758 43.7458 444.135 43.2511ZM452.388 43.13C451.765 42.6353 451.378 41.9486 451.303 41.1879C451.229 40.4268 451.47 39.6158 452.059 38.8741C452.645 38.1359 453.477 37.5886 454.32 37.3435C455.159 37.0996 456.057 37.1452 456.721 37.6724C457.385 38.1996 457.633 39.064 457.585 39.9361C457.538 40.8125 457.193 41.7474 456.608 42.4846C456.018 43.2268 455.283 43.6456 454.525 43.7456C453.767 43.8458 453.011 43.6247 452.388 43.13ZM446.956 33.6272C450.196 36.1997 455.071 35.5725 458.662 32.7847C460.255 31.5478 460.99 29.448 460.199 27.5486C459.572 26.0389 458.35 24.1357 455.984 22.2576C453.618 20.3792 451.488 19.6203 449.875 19.3509C447.846 19.0119 445.967 20.2039 445.124 22.0354C443.222 26.1652 443.717 31.0551 446.956 33.6272ZM436.47 30.4916C437.093 30.9863 437.849 31.2073 438.607 31.1071C439.365 31.0072 440.1 30.5884 440.689 29.8466C441.275 29.1085 441.62 28.1741 441.668 27.2977C441.715 26.4255 441.467 25.5612 440.803 25.034C440.139 24.5068 439.241 24.4611 438.402 24.705C437.559 24.9502 436.727 25.4975 436.142 26.2352C435.552 26.9774 435.311 27.7884 435.385 28.5495C435.46 29.3101 435.847 29.9969 436.47 30.4916ZM438.223 38.5568C438.846 39.0515 439.602 39.2726 440.36 39.1724C441.118 39.0725 441.853 38.6536 442.442 37.9119C443.028 37.1737 443.373 36.2393 443.42 35.363C443.468 34.4908 443.22 33.6265 442.556 33.0993C441.892 32.5721 440.994 32.5264 440.155 32.7703C439.312 33.0154 438.48 33.5627 437.895 34.3004C437.305 35.0427 437.064 35.8536 437.138 36.6147C437.213 37.3754 437.6 38.0621 438.223 38.5568Z" fill="black"/>
</g>
<g clip-path="url(#clip1_215_5)">
<path d="M552.135 31.2511C551.512 30.7564 551.125 30.0696 551.051 29.309C550.976 28.5479 551.218 27.7369 551.807 26.9952C552.393 26.257 553.225 25.7097 554.067 25.4645C554.906 25.2207 555.804 25.2663 556.468 25.7935C557.132 26.3207 557.38 27.185 557.333 28.0572C557.285 28.9336 556.941 29.868 556.355 30.6057C555.766 31.3479 555.03 31.7667 554.272 31.8667C553.515 31.9669 552.758 31.7458 552.135 31.2511ZM560.388 31.13C559.765 30.6353 559.378 29.9486 559.303 29.1879C559.229 28.4268 559.47 27.6158 560.059 26.8741C560.645 26.1359 561.477 25.5886 562.32 25.3435C563.159 25.0996 564.057 25.1452 564.721 25.6724C565.385 26.1996 565.633 27.064 565.585 27.9361C565.538 28.8125 565.193 29.7474 564.608 30.4846C564.018 31.2268 563.283 31.6456 562.525 31.7456C561.767 31.8458 561.011 31.6247 560.388 31.13ZM554.956 21.6272C558.196 24.1997 563.071 23.5725 566.662 20.7847C568.255 19.5478 568.99 17.448 568.199 15.5486C567.572 14.0389 566.35 12.1357 563.984 10.2576C561.618 8.3792 559.488 7.62032 557.875 7.35092C555.846 7.01185 553.967 8.20386 553.124 10.0354C551.222 14.1652 551.717 19.0551 554.956 21.6272ZM544.47 18.4916C545.093 18.9863 545.849 19.2073 546.607 19.1071C547.365 19.0072 548.1 18.5884 548.689 17.8466C549.275 17.1085 549.62 16.1741 549.668 15.2977C549.715 14.4255 549.467 13.5612 548.803 13.034C548.139 12.5068 547.241 12.4611 546.402 12.705C545.559 12.9502 544.727 13.4975 544.142 14.2352C543.552 14.9774 543.311 15.7884 543.385 16.5495C543.46 17.3101 543.847 17.9969 544.47 18.4916ZM546.223 26.5568C546.846 27.0515 547.602 27.2726 548.36 27.1724C549.118 27.0725 549.853 26.6536 550.442 25.9119C551.028 25.1737 551.373 24.2393 551.42 23.363C551.468 22.4908 551.22 21.6265 550.556 21.0993C549.892 20.5721 548.994 20.5264 548.155 20.7703C547.312 21.0154 546.48 21.5627 545.895 22.3004C545.305 23.0427 545.064 23.8536 545.138 24.6147C545.213 25.3754 545.6 26.0621 546.223 26.5568Z" fill="black"/>
</g>
<g clip-path="url(#clip2_215_5)">
<path d="M377.135 123.251C376.512 122.756 376.125 122.07 376.051 121.309C375.976 120.548 376.218 119.737 376.807 118.995C377.393 118.257 378.225 117.71 379.067 117.465C379.906 117.221 380.804 117.266 381.468 117.794C382.132 118.321 382.38 119.185 382.333 120.057C382.285 120.934 381.941 121.868 381.355 122.606C380.766 123.348 380.03 123.767 379.272 123.867C378.515 123.967 377.758 123.746 377.135 123.251ZM385.388 123.13C384.765 122.635 384.378 121.949 384.303 121.188C384.229 120.427 384.47 119.616 385.059 118.874C385.645 118.136 386.477 117.589 387.32 117.343C388.159 117.1 389.057 117.145 389.721 117.672C390.385 118.2 390.633 119.064 390.585 119.936C390.538 120.813 390.193 121.747 389.608 122.485C389.018 123.227 388.283 123.646 387.525 123.746C386.767 123.846 386.011 123.625 385.388 123.13ZM379.956 113.627C383.196 116.2 388.071 115.573 391.662 112.785C393.255 111.548 393.99 109.448 393.199 107.549C392.572 106.039 391.35 104.136 388.984 102.258C386.618 100.379 384.488 99.6203 382.875 99.3509C380.846 99.0119 378.967 100.204 378.124 102.035C376.222 106.165 376.717 111.055 379.956 113.627ZM369.47 110.492C370.093 110.986 370.849 111.207 371.607 111.107C372.365 111.007 373.1 110.588 373.689 109.847C374.275 109.108 374.62 108.174 374.668 107.298C374.715 106.426 374.467 105.561 373.803 105.034C373.139 104.507 372.241 104.461 371.402 104.705C370.559 104.95 369.727 105.497 369.142 106.235C368.552 106.977 368.311 107.788 368.385 108.549C368.46 109.31 368.847 109.997 369.47 110.492ZM371.223 118.557C371.846 119.052 372.602 119.273 373.36 119.172C374.118 119.072 374.853 118.654 375.442 117.912C376.028 117.174 376.373 116.239 376.42 115.363C376.468 114.491 376.22 113.626 375.556 113.099C374.892 112.572 373.994 112.526 373.155 112.77C372.312 113.015 371.48 113.563 370.895 114.3C370.305 115.043 370.064 115.854 370.138 116.615C370.213 117.375 370.6 118.062 371.223 118.557Z" fill="black"/>
</g>
<g clip-path="url(#clip3_215_5)">
<path d="M484.135 113.252C483.512 112.757 483.125 112.071 483.051 111.31C482.977 110.549 483.218 109.738 483.807 108.996C484.393 108.258 485.225 107.711 486.068 107.465C486.906 107.222 487.804 107.267 488.468 107.794C489.132 108.322 489.38 109.186 489.333 110.058C489.285 110.934 488.941 111.869 488.355 112.607C487.766 113.349 487.031 113.768 486.272 113.868C485.515 113.968 484.758 113.747 484.135 113.252ZM492.388 113.131C491.765 112.636 491.378 111.949 491.303 111.189C491.229 110.428 491.471 109.617 492.059 108.875C492.646 108.137 493.478 107.589 494.32 107.344C495.159 107.1 496.057 107.146 496.721 107.673C497.385 108.201 497.633 109.065 497.586 109.937C497.538 110.813 497.193 111.748 496.608 112.485C496.019 113.228 495.283 113.646 494.525 113.746C493.768 113.847 493.011 113.626 492.388 113.131ZM486.957 103.628C490.197 106.201 495.071 105.573 498.662 102.786C500.255 101.549 500.99 99.4488 500.2 97.5494C499.572 96.0397 498.35 94.1366 495.985 92.2585C493.619 90.3801 491.488 89.6212 489.875 89.3518C487.846 89.0127 485.968 90.2047 485.124 92.0363C483.222 96.166 483.717 101.056 486.957 103.628ZM476.47 100.492C477.093 100.987 477.85 101.208 478.607 101.108C479.365 101.008 480.101 100.589 480.69 99.8475C481.276 99.1093 481.62 98.1749 481.668 97.2985C481.715 96.4264 481.467 95.5621 480.803 95.0349C480.139 94.5076 479.241 94.462 478.402 94.7059C477.56 94.951 476.728 95.4983 476.142 96.236C475.553 96.9783 475.311 97.7892 475.386 98.5503C475.46 99.311 475.847 99.9977 476.47 100.492ZM478.223 108.558C478.846 109.052 479.602 109.273 480.36 109.173C481.118 109.073 481.853 108.655 482.442 107.913C483.029 107.175 483.373 106.24 483.421 105.364C483.468 104.492 483.22 103.627 482.556 103.1C481.892 102.573 480.994 102.527 480.155 102.771C479.313 103.016 478.481 103.564 477.895 104.301C477.306 105.044 477.064 105.854 477.138 106.616C477.213 107.376 477.6 108.063 478.223 108.558Z" fill="black"/>
</g>
<g clip-path="url(#clip4_215_5)">
<path d="M422.135 212.251C421.512 211.756 421.125 211.07 421.051 210.309C420.976 209.548 421.218 208.737 421.807 207.995C422.393 207.257 423.225 206.71 424.067 206.465C424.906 206.221 425.804 206.266 426.468 206.794C427.132 207.321 427.38 208.185 427.333 209.057C427.285 209.934 426.941 210.868 426.355 211.606C425.766 212.348 425.03 212.767 424.272 212.867C423.515 212.967 422.758 212.746 422.135 212.251ZM430.388 212.13C429.765 211.635 429.378 210.949 429.303 210.188C429.229 209.427 429.47 208.616 430.059 207.874C430.645 207.136 431.477 206.589 432.32 206.343C433.159 206.1 434.057 206.145 434.721 206.672C435.385 207.2 435.633 208.064 435.585 208.936C435.538 209.813 435.193 210.747 434.608 211.485C434.018 212.227 433.283 212.646 432.525 212.746C431.767 212.846 431.011 212.625 430.388 212.13ZM424.956 202.627C428.196 205.2 433.071 204.573 436.662 201.785C438.255 200.548 438.99 198.448 438.199 196.549C437.572 195.039 436.35 193.136 433.984 191.258C431.618 189.379 429.488 188.62 427.875 188.351C425.846 188.012 423.967 189.204 423.124 191.035C421.222 195.165 421.717 200.055 424.956 202.627ZM414.47 199.492C415.093 199.986 415.849 200.207 416.607 200.107C417.365 200.007 418.1 199.588 418.689 198.847C419.275 198.108 419.62 197.174 419.668 196.298C419.715 195.426 419.467 194.561 418.803 194.034C418.139 193.507 417.241 193.461 416.402 193.705C415.559 193.95 414.727 194.497 414.142 195.235C413.552 195.977 413.311 196.788 413.385 197.549C413.46 198.31 413.847 198.997 414.47 199.492ZM416.223 207.557C416.846 208.052 417.602 208.273 418.36 208.172C419.118 208.072 419.853 207.654 420.442 206.912C421.028 206.174 421.373 205.239 421.42 204.363C421.468 203.491 421.22 202.626 420.556 202.099C419.892 201.572 418.994 201.526 418.155 201.77C417.312 202.015 416.48 202.563 415.895 203.3C415.305 204.043 415.064 204.854 415.138 205.615C415.213 206.375 415.6 207.062 416.223 207.557Z" fill="black"/>
</g>
<g clip-path="url(#clip5_215_5)">
<path d="M307.135 200.251C306.512 199.756 306.125 199.07 306.051 198.309C305.976 197.548 306.218 196.737 306.807 195.995C307.393 195.257 308.225 194.71 309.067 194.465C309.906 194.221 310.804 194.266 311.468 194.794C312.132 195.321 312.38 196.185 312.333 197.057C312.285 197.934 311.941 198.868 311.355 199.606C310.766 200.348 310.03 200.767 309.272 200.867C308.515 200.967 307.758 200.746 307.135 200.251ZM315.388 200.13C314.765 199.635 314.378 198.949 314.303 198.188C314.229 197.427 314.47 196.616 315.059 195.874C315.645 195.136 316.477 194.589 317.32 194.343C318.159 194.1 319.057 194.145 319.721 194.672C320.385 195.2 320.633 196.064 320.585 196.936C320.538 197.813 320.193 198.747 319.608 199.485C319.018 200.227 318.283 200.646 317.525 200.746C316.767 200.846 316.011 200.625 315.388 200.13ZM309.956 190.627C313.196 193.2 318.071 192.573 321.662 189.785C323.255 188.548 323.99 186.448 323.199 184.549C322.572 183.039 321.35 181.136 318.984 179.258C316.618 177.379 314.488 176.62 312.875 176.351C310.846 176.012 308.967 177.204 308.124 179.035C306.222 183.165 306.717 188.055 309.956 190.627ZM299.47 187.492C300.093 187.986 300.849 188.207 301.607 188.107C302.365 188.007 303.1 187.588 303.689 186.847C304.275 186.108 304.62 185.174 304.668 184.298C304.715 183.426 304.467 182.561 303.803 182.034C303.139 181.507 302.241 181.461 301.402 181.705C300.559 181.95 299.727 182.497 299.142 183.235C298.552 183.977 298.311 184.788 298.385 185.549C298.46 186.31 298.847 186.997 299.47 187.492ZM301.223 195.557C301.846 196.052 302.602 196.273 303.36 196.172C304.118 196.072 304.853 195.654 305.442 194.912C306.028 194.174 306.373 193.239 306.42 192.363C306.468 191.491 306.22 190.626 305.556 190.099C304.892 189.572 303.994 189.526 303.155 189.77C302.312 190.015 301.48 190.563 300.895 191.3C300.305 192.043 300.064 192.854 300.138 193.615C300.213 194.375 300.6 195.062 301.223 195.557Z" fill="black"/>
</g>
<g clip-path="url(#clip6_215_5)">
<path d="M266.135 278.251C265.512 277.756 265.125 277.07 265.051 276.309C264.976 275.548 265.218 274.737 265.807 273.995C266.393 273.257 267.225 272.71 268.067 272.464C268.906 272.221 269.804 272.266 270.468 272.793C271.132 273.321 271.38 274.185 271.333 275.057C271.285 275.933 270.941 276.868 270.355 277.606C269.766 278.348 269.03 278.767 268.272 278.867C267.515 278.967 266.758 278.746 266.135 278.251ZM274.388 278.13C273.765 277.635 273.378 276.948 273.303 276.188C273.229 275.427 273.47 274.616 274.059 273.874C274.645 273.136 275.477 272.588 276.32 272.343C277.159 272.099 278.057 272.145 278.721 272.672C279.385 273.2 279.633 274.064 279.585 274.936C279.538 275.812 279.193 276.747 278.608 277.484C278.018 278.227 277.283 278.646 276.525 278.745C275.767 278.846 275.011 278.625 274.388 278.13ZM268.956 268.627C272.196 271.2 277.071 270.572 280.662 267.785C282.255 266.548 282.99 264.448 282.199 262.548C281.572 261.039 280.35 259.136 277.984 257.258C275.618 255.379 273.488 254.62 271.875 254.351C269.846 254.012 267.967 255.204 267.124 257.035C265.222 261.165 265.717 266.055 268.956 268.627ZM258.47 265.491C259.093 265.986 259.849 266.207 260.607 266.107C261.365 266.007 262.1 265.588 262.689 264.846C263.275 264.108 263.62 263.174 263.668 262.298C263.715 261.425 263.467 260.561 262.803 260.034C262.139 259.507 261.241 259.461 260.402 259.705C259.559 259.95 258.727 260.497 258.142 261.235C257.552 261.977 257.311 262.788 257.385 263.549C257.46 264.31 257.847 264.997 258.47 265.491ZM260.223 273.557C260.846 274.051 261.602 274.272 262.36 274.172C263.118 274.072 263.853 273.654 264.442 272.912C265.028 272.174 265.373 271.239 265.42 270.363C265.468 269.491 265.22 268.626 264.556 268.099C263.892 267.572 262.994 267.526 262.155 267.77C261.312 268.015 260.48 268.563 259.895 269.3C259.305 270.043 259.064 270.854 259.138 271.615C259.213 272.375 259.6 273.062 260.223 273.557Z" fill="black"/>
</g>
<g clip-path="url(#clip7_215_5)">
<path d="M355.135 295.251C354.512 294.756 354.125 294.07 354.051 293.309C353.976 292.548 354.218 291.737 354.807 290.995C355.393 290.257 356.225 289.71 357.067 289.464C357.906 289.221 358.804 289.266 359.468 289.793C360.132 290.321 360.38 291.185 360.333 292.057C360.285 292.933 359.941 293.868 359.355 294.606C358.766 295.348 358.03 295.767 357.272 295.867C356.515 295.967 355.758 295.746 355.135 295.251ZM363.388 295.13C362.765 294.635 362.378 293.948 362.303 293.188C362.229 292.427 362.47 291.616 363.059 290.874C363.645 290.136 364.477 289.588 365.32 289.343C366.159 289.099 367.057 289.145 367.721 289.672C368.385 290.2 368.633 291.064 368.585 291.936C368.538 292.812 368.193 293.747 367.608 294.484C367.018 295.227 366.283 295.646 365.525 295.745C364.767 295.846 364.011 295.625 363.388 295.13ZM357.956 285.627C361.196 288.2 366.071 287.572 369.662 284.785C371.255 283.548 371.99 281.448 371.199 279.548C370.572 278.039 369.35 276.136 366.984 274.258C364.618 272.379 362.488 271.62 360.875 271.351C358.846 271.012 356.967 272.204 356.124 274.035C354.222 278.165 354.717 283.055 357.956 285.627ZM347.47 282.491C348.093 282.986 348.849 283.207 349.607 283.107C350.365 283.007 351.1 282.588 351.689 281.846C352.275 281.108 352.62 280.174 352.668 279.298C352.715 278.425 352.467 277.561 351.803 277.034C351.139 276.507 350.241 276.461 349.402 276.705C348.559 276.95 347.727 277.497 347.142 278.235C346.552 278.977 346.311 279.788 346.385 280.549C346.46 281.31 346.847 281.997 347.47 282.491ZM349.223 290.557C349.846 291.051 350.602 291.272 351.36 291.172C352.118 291.072 352.853 290.654 353.442 289.912C354.028 289.174 354.373 288.239 354.42 287.363C354.468 286.491 354.22 285.626 353.556 285.099C352.892 284.572 351.994 284.526 351.155 284.77C350.312 285.015 349.48 285.563 348.895 286.3C348.305 287.043 348.064 287.854 348.138 288.615C348.213 289.375 348.6 290.062 349.223 290.557Z" fill="black"/>
</g>
<g clip-path="url(#clip8_215_5)">
<path d="M187.135 365.251C186.512 364.756 186.125 364.07 186.051 363.309C185.976 362.548 186.218 361.737 186.807 360.995C187.393 360.257 188.225 359.71 189.067 359.464C189.906 359.221 190.804 359.266 191.468 359.793C192.132 360.321 192.38 361.185 192.333 362.057C192.285 362.933 191.941 363.868 191.355 364.606C190.766 365.348 190.03 365.767 189.272 365.867C188.515 365.967 187.758 365.746 187.135 365.251ZM195.388 365.13C194.765 364.635 194.378 363.948 194.303 363.188C194.229 362.427 194.47 361.616 195.059 360.874C195.645 360.136 196.477 359.588 197.32 359.343C198.159 359.099 199.057 359.145 199.721 359.672C200.385 360.2 200.633 361.064 200.585 361.936C200.538 362.812 200.193 363.747 199.608 364.484C199.018 365.227 198.283 365.646 197.525 365.745C196.767 365.846 196.011 365.625 195.388 365.13ZM189.956 355.627C193.196 358.2 198.071 357.572 201.662 354.785C203.255 353.548 203.99 351.448 203.199 349.548C202.572 348.039 201.35 346.136 198.984 344.258C196.618 342.379 194.488 341.62 192.875 341.351C190.846 341.012 188.967 342.204 188.124 344.035C186.222 348.165 186.717 353.055 189.956 355.627ZM179.47 352.491C180.093 352.986 180.849 353.207 181.607 353.107C182.365 353.007 183.1 352.588 183.689 351.846C184.275 351.108 184.62 350.174 184.668 349.298C184.715 348.425 184.467 347.561 183.803 347.034C183.139 346.507 182.241 346.461 181.402 346.705C180.559 346.95 179.727 347.497 179.142 348.235C178.552 348.977 178.311 349.788 178.385 350.549C178.46 351.31 178.847 351.997 179.47 352.491ZM181.223 360.557C181.846 361.051 182.602 361.272 183.36 361.172C184.118 361.072 184.853 360.654 185.442 359.912C186.028 359.174 186.373 358.239 186.42 357.363C186.468 356.491 186.22 355.626 185.556 355.099C184.892 354.572 183.994 354.526 183.155 354.77C182.312 355.015 181.48 355.563 180.895 356.3C180.305 357.043 180.064 357.854 180.138 358.615C180.213 359.375 180.6 360.062 181.223 360.557Z" fill="black"/>
</g>
<g clip-path="url(#clip9_215_5)">
<path d="M103.135 522.251C102.512 521.756 102.125 521.07 102.051 520.309C101.976 519.548 102.218 518.737 102.807 517.995C103.393 517.257 104.225 516.71 105.067 516.464C105.906 516.221 106.804 516.266 107.468 516.793C108.132 517.321 108.38 518.185 108.333 519.057C108.285 519.933 107.941 520.868 107.355 521.606C106.766 522.348 106.03 522.767 105.272 522.867C104.515 522.967 103.758 522.746 103.135 522.251ZM111.388 522.13C110.765 521.635 110.378 520.948 110.303 520.188C110.229 519.427 110.47 518.616 111.059 517.874C111.645 517.136 112.477 516.588 113.32 516.343C114.159 516.099 115.057 516.145 115.721 516.672C116.385 517.2 116.633 518.064 116.585 518.936C116.538 519.812 116.193 520.747 115.608 521.484C115.018 522.227 114.283 522.646 113.525 522.745C112.767 522.846 112.011 522.625 111.388 522.13ZM105.956 512.627C109.196 515.2 114.071 514.572 117.662 511.785C119.255 510.548 119.99 508.448 119.199 506.548C118.572 505.039 117.35 503.136 114.984 501.258C112.618 499.379 110.488 498.62 108.875 498.351C106.846 498.012 104.967 499.204 104.124 501.035C102.222 505.165 102.717 510.055 105.956 512.627ZM95.4697 509.491C96.0928 509.986 96.8494 510.207 97.6066 510.107C98.3652 510.007 99.1004 509.588 99.6893 508.846C100.275 508.108 100.62 507.174 100.668 506.298C100.715 505.425 100.467 504.561 99.8029 504.034C99.1389 503.507 98.2409 503.461 97.4021 503.705C96.5594 503.95 95.7274 504.497 95.1417 505.235C94.5524 505.977 94.3111 506.788 94.3853 507.549C94.4599 508.31 94.8467 508.997 95.4697 509.491ZM97.2226 517.557C97.8457 518.051 98.6022 518.272 99.3595 518.172C100.118 518.072 100.853 517.654 101.442 516.912C102.028 516.174 102.373 515.239 102.42 514.363C102.468 513.491 102.22 512.626 101.556 512.099C100.892 511.572 99.9938 511.526 99.155 511.77C98.3123 512.015 97.4803 512.563 96.8946 513.3C96.3053 514.043 96.064 514.854 96.1382 515.615C96.2127 516.375 96.5995 517.062 97.2226 517.557Z" fill="black"/>
</g>
<g clip-path="url(#clip10_215_5)">
<path d="M100.135 435.251C99.5119 434.756 99.1251 434.07 99.0506 433.309C98.9764 432.548 99.2176 431.737 99.8066 430.995C100.393 430.257 101.225 429.71 102.067 429.464C102.906 429.221 103.804 429.266 104.468 429.793C105.132 430.321 105.38 431.185 105.333 432.057C105.285 432.933 104.941 433.868 104.355 434.606C103.766 435.348 103.03 435.767 102.272 435.867C101.515 435.967 100.758 435.746 100.135 435.251ZM108.388 435.13C107.765 434.635 107.378 433.948 107.303 433.188C107.229 432.427 107.47 431.616 108.059 430.874C108.645 430.136 109.477 429.588 110.32 429.343C111.159 429.099 112.057 429.145 112.721 429.672C113.385 430.2 113.633 431.064 113.585 431.936C113.538 432.812 113.193 433.747 112.608 434.484C112.018 435.227 111.283 435.646 110.525 435.745C109.767 435.846 109.011 435.625 108.388 435.13ZM102.956 425.627C106.196 428.2 111.071 427.572 114.662 424.785C116.255 423.548 116.99 421.448 116.199 419.548C115.572 418.039 114.35 416.136 111.984 414.258C109.618 412.379 107.488 411.62 105.875 411.351C103.846 411.012 101.967 412.204 101.124 414.035C99.2222 418.165 99.7169 423.055 102.956 425.627ZM92.4697 422.491C93.0928 422.986 93.8494 423.207 94.6066 423.107C95.3652 423.007 96.1004 422.588 96.6893 421.846C97.2754 421.108 97.6198 420.174 97.6676 419.298C97.715 418.425 97.4669 417.561 96.8029 417.034C96.1389 416.507 95.2409 416.461 94.4021 416.705C93.5594 416.95 92.7274 417.497 92.1417 418.235C91.5524 418.977 91.3111 419.788 91.3853 420.549C91.4599 421.31 91.8467 421.997 92.4697 422.491ZM94.2226 430.557C94.8457 431.051 95.6022 431.272 96.3595 431.172C97.1181 431.072 97.8532 430.654 98.4422 429.912C99.0283 429.174 99.3727 428.239 99.4205 427.363C99.4679 426.491 99.2198 425.626 98.5558 425.099C97.8918 424.572 96.9938 424.526 96.155 424.77C95.3123 425.015 94.4803 425.563 93.8946 426.3C93.3053 427.043 93.064 427.854 93.1382 428.615C93.2127 429.375 93.5995 430.062 94.2226 430.557Z" fill="black"/>
</g>
<g clip-path="url(#clip11_215_5)">
<path d="M286.135 367.251C285.512 366.756 285.125 366.07 285.051 365.309C284.976 364.548 285.218 363.737 285.807 362.995C286.393 362.257 287.225 361.71 288.067 361.464C288.906 361.221 289.804 361.266 290.468 361.793C291.132 362.321 291.38 363.185 291.333 364.057C291.285 364.933 290.941 365.868 290.355 366.606C289.766 367.348 289.03 367.767 288.272 367.867C287.515 367.967 286.758 367.746 286.135 367.251ZM294.388 367.13C293.765 366.635 293.378 365.948 293.303 365.188C293.229 364.427 293.47 363.616 294.059 362.874C294.645 362.136 295.477 361.588 296.32 361.343C297.159 361.099 298.057 361.145 298.721 361.672C299.385 362.2 299.633 363.064 299.585 363.936C299.538 364.812 299.193 365.747 298.608 366.484C298.018 367.227 297.283 367.646 296.525 367.745C295.767 367.846 295.011 367.625 294.388 367.13ZM288.956 357.627C292.196 360.2 297.071 359.572 300.662 356.785C302.255 355.548 302.99 353.448 302.199 351.548C301.572 350.039 300.35 348.136 297.984 346.258C295.618 344.379 293.488 343.62 291.875 343.351C289.846 343.012 287.967 344.204 287.124 346.035C285.222 350.165 285.717 355.055 288.956 357.627ZM278.47 354.491C279.093 354.986 279.849 355.207 280.607 355.107C281.365 355.007 282.1 354.588 282.689 353.846C283.275 353.108 283.62 352.174 283.668 351.298C283.715 350.425 283.467 349.561 282.803 349.034C282.139 348.507 281.241 348.461 280.402 348.705C279.559 348.95 278.727 349.497 278.142 350.235C277.552 350.977 277.311 351.788 277.385 352.549C277.46 353.31 277.847 353.997 278.47 354.491ZM280.223 362.557C280.846 363.051 281.602 363.272 282.36 363.172C283.118 363.072 283.853 362.654 284.442 361.912C285.028 361.174 285.373 360.239 285.42 359.363C285.468 358.491 285.22 357.626 284.556 357.099C283.892 356.572 282.994 356.526 282.155 356.77C281.312 357.015 280.48 357.563 279.895 358.3C279.305 359.043 279.064 359.854 279.138 360.615C279.213 361.375 279.6 362.062 280.223 362.557Z" fill="black"/>
</g>
<g clip-path="url(#clip12_215_5)">
<path d="M196.135 444.251C195.512 443.756 195.125 443.07 195.051 442.309C194.976 441.548 195.218 440.737 195.807 439.995C196.393 439.257 197.225 438.71 198.067 438.464C198.906 438.221 199.804 438.266 200.468 438.793C201.132 439.321 201.38 440.185 201.333 441.057C201.285 441.933 200.941 442.868 200.355 443.606C199.766 444.348 199.03 444.767 198.272 444.867C197.515 444.967 196.758 444.746 196.135 444.251ZM204.388 444.13C203.765 443.635 203.378 442.948 203.303 442.188C203.229 441.427 203.47 440.616 204.059 439.874C204.645 439.136 205.477 438.588 206.32 438.343C207.159 438.099 208.057 438.145 208.721 438.672C209.385 439.2 209.633 440.064 209.585 440.936C209.538 441.812 209.193 442.747 208.608 443.484C208.018 444.227 207.283 444.646 206.525 444.745C205.767 444.846 205.011 444.625 204.388 444.13ZM198.956 434.627C202.196 437.2 207.071 436.572 210.662 433.785C212.255 432.548 212.99 430.448 212.199 428.548C211.572 427.039 210.35 425.136 207.984 423.258C205.618 421.379 203.488 420.62 201.875 420.351C199.846 420.012 197.967 421.204 197.124 423.035C195.222 427.165 195.717 432.055 198.956 434.627ZM188.47 431.491C189.093 431.986 189.849 432.207 190.607 432.107C191.365 432.007 192.1 431.588 192.689 430.846C193.275 430.108 193.62 429.174 193.668 428.298C193.715 427.425 193.467 426.561 192.803 426.034C192.139 425.507 191.241 425.461 190.402 425.705C189.559 425.95 188.727 426.497 188.142 427.235C187.552 427.977 187.311 428.788 187.385 429.549C187.46 430.31 187.847 430.997 188.47 431.491ZM190.223 439.557C190.846 440.051 191.602 440.272 192.36 440.172C193.118 440.072 193.853 439.654 194.442 438.912C195.028 438.174 195.373 437.239 195.42 436.363C195.468 435.491 195.22 434.626 194.556 434.099C193.892 433.572 192.994 433.526 192.155 433.77C191.312 434.015 190.48 434.563 189.895 435.3C189.305 436.043 189.064 436.854 189.138 437.615C189.213 438.375 189.6 439.062 190.223 439.557Z" fill="black"/>
</g>
<g clip-path="url(#clip13_215_5)">
<path d="M15.135 520.251C14.5119 519.756 14.1251 519.07 14.0506 518.309C13.9764 517.548 14.2176 516.737 14.8066 515.995C15.3927 515.257 16.2247 514.71 17.0674 514.464C17.9061 514.221 18.8042 514.266 19.4682 514.793C20.1322 515.321 20.3802 516.185 20.3328 517.057C20.2851 517.933 19.9406 518.868 19.3549 519.606C18.7656 520.348 18.0305 520.767 17.2719 520.867C16.5146 520.967 15.7581 520.746 15.135 520.251ZM23.3876 520.13C22.7646 519.635 22.3778 518.948 22.3032 518.188C22.2291 517.427 22.4703 516.616 23.0593 515.874C23.6453 515.136 24.4773 514.588 25.32 514.343C26.1588 514.099 27.0568 514.145 27.7208 514.672C28.3848 515.2 28.6329 516.064 28.5855 516.936C28.5377 517.812 28.1929 518.747 27.6076 519.484C27.0183 520.227 26.2831 520.646 25.5246 520.745C24.7673 520.846 24.0107 520.625 23.3876 520.13ZM17.9564 510.627C21.1964 513.2 26.0706 512.572 29.6618 509.785C31.2549 508.548 31.99 506.448 31.1994 504.548C30.5718 503.039 29.3497 501.136 26.9843 499.258C24.6184 497.379 22.4878 496.62 20.8746 496.351C18.8459 496.012 16.9674 497.204 16.1242 499.035C14.2222 503.165 14.7169 508.055 17.9564 510.627ZM7.46973 507.491C8.0928 507.986 8.84936 508.207 9.60665 508.107C10.3652 508.007 11.1004 507.588 11.6893 506.846C12.2754 506.108 12.6198 505.174 12.6676 504.298C12.715 503.425 12.4669 502.561 11.8029 502.034C11.1389 501.507 10.2409 501.461 9.40213 501.705C8.5594 501.95 7.7274 502.497 7.1417 503.235C6.55239 503.977 6.31114 504.788 6.38532 505.549C6.45986 506.31 6.84666 506.997 7.46973 507.491ZM9.22261 515.557C9.84569 516.051 10.6022 516.272 11.3595 516.172C12.1181 516.072 12.8532 515.654 13.4422 514.912C14.0283 514.174 14.3727 513.239 14.4205 512.363C14.4679 511.491 14.2198 510.626 13.5558 510.099C12.8918 509.572 11.9938 509.526 11.155 509.77C10.3123 510.015 9.48029 510.563 8.89459 511.3C8.30527 512.043 8.06402 512.854 8.1382 513.615C8.21274 514.375 8.59954 515.062 9.22261 515.557Z" fill="black"/>
</g>
<defs>
<clipPath id="clip0_215_5">
<rect width="27.8744" height="27.8744" fill="white" transform="translate(450.83 51.1621) rotate(-141.551)"/>
</clipPath>
<clipPath id="clip1_215_5">
<rect width="27.8744" height="27.8744" fill="white" transform="translate(558.83 39.1621) rotate(-141.551)"/>
</clipPath>
<clipPath id="clip2_215_5">
<rect width="27.8744" height="27.8744" fill="white" transform="translate(383.83 131.162) rotate(-141.551)"/>
</clipPath>
<clipPath id="clip3_215_5">
<rect width="27.8744" height="27.8744" fill="white" transform="translate(490.83 121.163) rotate(-141.551)"/>
</clipPath>
<clipPath id="clip4_215_5">
<rect width="27.8744" height="27.8744" fill="white" transform="translate(428.83 220.162) rotate(-141.551)"/>
</clipPath>
<clipPath id="clip5_215_5">
<rect width="27.8744" height="27.8744" fill="white" transform="translate(313.83 208.162) rotate(-141.551)"/>
</clipPath>
<clipPath id="clip6_215_5">
<rect width="27.8744" height="27.8744" fill="white" transform="translate(272.83 286.162) rotate(-141.551)"/>
</clipPath>
<clipPath id="clip7_215_5">
<rect width="27.8744" height="27.8744" fill="white" transform="translate(361.83 303.162) rotate(-141.551)"/>
</clipPath>
<clipPath id="clip8_215_5">
<rect width="27.8744" height="27.8744" fill="white" transform="translate(193.83 373.162) rotate(-141.551)"/>
</clipPath>
<clipPath id="clip9_215_5">
<rect width="27.8744" height="27.8744" fill="white" transform="translate(109.83 530.162) rotate(-141.551)"/>
</clipPath>
<clipPath id="clip10_215_5">
<rect width="27.8744" height="27.8744" fill="white" transform="translate(106.83 443.162) rotate(-141.551)"/>
</clipPath>
<clipPath id="clip11_215_5">
<rect width="27.8744" height="27.8744" fill="white" transform="translate(292.83 375.162) rotate(-141.551)"/>
</clipPath>
<clipPath id="clip12_215_5">
<rect width="27.8744" height="27.8744" fill="white" transform="translate(202.83 452.162) rotate(-141.551)"/>
</clipPath>
<clipPath id="clip13_215_5">
<rect width="27.8744" height="27.8744" fill="white" transform="translate(21.8301 528.162) rotate(-141.551)"/>
</clipPath>
</defs>
</svg>
