<svg width="420" height="153" viewBox="0 0 420 153" fill="none" xmlns="http://www.w3.org/2000/svg">
<g clip-path="url(#clip0_215_2)">
<path d="M31.3278 57.8672C30.8833 58.527 30.2289 58.9663 29.4764 59.1C28.7234 59.2335 27.8961 59.0563 27.1106 58.5271C26.3289 58.0006 25.7182 57.2139 25.4079 56.3929C25.0993 55.5758 25.0746 54.6769 25.5483 53.9737C26.022 53.2706 26.8643 52.9557 27.7375 52.9348C28.6149 52.9139 29.5734 53.1843 30.3546 53.7106C31.1406 54.2401 31.6156 54.9402 31.7745 55.6887C31.9336 56.4358 31.7723 57.2073 31.3278 57.8672ZM30.5621 49.6492C30.1176 50.309 29.4632 50.7483 28.7107 50.8821C27.9578 51.0155 27.1304 50.8384 26.3449 50.3092C25.5632 49.7826 24.9525 48.9959 24.6423 48.1749C24.3336 47.3578 24.3089 46.459 24.7826 45.7558C25.2563 45.0526 26.0986 44.7378 26.9718 44.7168C27.8492 44.696 28.8082 44.9667 29.5889 45.4926C30.3749 46.0221 30.8499 46.7223 31.0088 47.4707C31.1679 48.2178 31.0066 48.9894 30.5621 49.6492ZM21.5129 55.8065C23.8242 52.3754 22.8181 47.565 19.7582 44.2027C18.4005 42.7112 16.2497 42.1424 14.4179 43.079C12.9618 43.8227 11.16 45.1898 9.47252 47.6947C7.78472 50.2001 7.19468 52.3836 7.05217 54.0129C6.87268 56.0619 8.20785 57.8415 10.0997 58.539C14.3655 60.1124 19.2018 59.2371 21.5129 55.8065ZM19.2063 66.5061C19.6508 65.8463 19.8121 65.0748 19.653 64.3276C19.4941 63.5792 19.0191 62.879 18.2336 62.3498C17.4519 61.8233 16.4934 61.5529 15.616 61.5738C14.7428 61.5947 13.9005 61.9095 13.4268 62.6127C12.9531 63.3159 12.9778 64.2147 13.2865 65.0319C13.5967 65.8528 14.2074 66.6395 14.9886 67.1658C15.7746 67.6953 16.6019 67.8724 17.3549 67.739C18.1074 67.6052 18.7618 67.166 19.2063 66.5061ZM27.1099 64.1283C27.5544 63.4685 27.7157 62.6969 27.5566 61.9498C27.3977 61.2014 26.9227 60.5012 26.1372 59.972C25.3555 59.4454 24.397 59.1751 23.5196 59.1959C22.6464 59.2169 21.8041 59.5317 21.3304 60.2349C20.8567 60.9381 20.8814 61.8369 21.1901 62.654C21.5003 63.475 22.111 64.2617 22.8922 64.788C23.6782 65.3175 24.5055 65.4946 25.2585 65.3612C26.011 65.2274 26.6654 64.7881 27.1099 64.1283Z" fill="black"/>
</g>
<g clip-path="url(#clip1_215_2)">
<path d="M88.3278 22.8672C87.8833 23.527 87.2289 23.9663 86.4764 24.1C85.7234 24.2335 84.8961 24.0563 84.1106 23.5271C83.3289 23.0006 82.7182 22.2139 82.4079 21.3929C82.0993 20.5758 82.0746 19.6769 82.5483 18.9737C83.022 18.2706 83.8643 17.9557 84.7375 17.9348C85.6149 17.9139 86.5734 18.1843 87.3546 18.7106C88.1406 19.2401 88.6156 19.9402 88.7745 20.6887C88.9336 21.4358 88.7723 22.2073 88.3278 22.8672ZM87.5621 14.6492C87.1176 15.309 86.4632 15.7483 85.7107 15.8821C84.9578 16.0155 84.1304 15.8384 83.3449 15.3092C82.5632 14.7826 81.9525 13.9959 81.6423 13.1749C81.3336 12.3578 81.3089 11.459 81.7826 10.7558C82.2563 10.0526 83.0986 9.73776 83.9718 9.71685C84.8492 9.69596 85.8082 9.96666 86.5889 10.4926C87.3749 11.0221 87.8499 11.7223 88.0088 12.4707C88.1679 13.2178 88.0066 13.9894 87.5621 14.6492ZM78.5129 20.8065C80.8242 17.3754 79.8181 12.565 76.7582 9.20272C75.4005 7.71116 73.2497 7.14237 71.4179 8.07898C69.9618 8.82267 68.16 10.1898 66.4725 12.6947C64.7847 15.2001 64.1947 17.3836 64.0522 19.0129C63.8727 21.0619 65.2079 22.8415 67.0997 23.539C71.3655 25.1124 76.2018 24.2371 78.5129 20.8065ZM76.2063 31.5061C76.6508 30.8463 76.8121 30.0748 76.653 29.3276C76.4941 28.5792 76.0191 27.879 75.2336 27.3498C74.4519 26.8233 73.4934 26.5529 72.616 26.5738C71.7428 26.5947 70.9005 26.9095 70.4268 27.6127C69.9531 28.3159 69.9778 29.2147 70.2865 30.0319C70.5967 30.8528 71.2074 31.6395 71.9886 32.1658C72.7746 32.6953 73.6019 32.8724 74.3549 32.739C75.1074 32.6052 75.7618 32.166 76.2063 31.5061ZM84.1099 29.1283C84.5544 28.4685 84.7157 27.6969 84.5566 26.9498C84.3977 26.2014 83.9227 25.5012 83.1372 24.972C82.3555 24.4454 81.397 24.1751 80.5196 24.1959C79.6464 24.2169 78.8041 24.5317 78.3304 25.2349C77.8567 25.9381 77.8814 26.8369 78.1901 27.654C78.5003 28.475 79.111 29.2617 79.8922 29.788C80.6782 30.3175 81.5055 30.4946 82.2585 30.3612C83.011 30.2274 83.6654 29.7881 84.1099 29.1283Z" fill="black"/>
</g>
<g clip-path="url(#clip2_215_2)">
<path d="M125.328 80.8672C124.883 81.527 124.229 81.9663 123.476 82.1C122.723 82.2335 121.896 82.0563 121.111 81.5271C120.329 81.0006 119.718 80.2139 119.408 79.3929C119.099 78.5758 119.075 77.6769 119.548 76.9737C120.022 76.2706 120.864 75.9557 121.737 75.9348C122.615 75.9139 123.573 76.1843 124.355 76.7106C125.141 77.2401 125.616 77.9402 125.774 78.6887C125.934 79.4358 125.772 80.2073 125.328 80.8672ZM124.562 72.6492C124.118 73.309 123.463 73.7483 122.711 73.8821C121.958 74.0155 121.13 73.8384 120.345 73.3092C119.563 72.7826 118.953 71.9959 118.642 71.1749C118.334 70.3578 118.309 69.459 118.783 68.7558C119.256 68.0526 120.099 67.7378 120.972 67.7168C121.849 67.696 122.808 67.9667 123.589 68.4926C124.375 69.0221 124.85 69.7223 125.009 70.4707C125.168 71.2178 125.007 71.9894 124.562 72.6492ZM115.513 78.8065C117.824 75.3754 116.818 70.565 113.758 67.2027C112.401 65.7112 110.25 65.1424 108.418 66.079C106.962 66.8227 105.16 68.1898 103.473 70.6947C101.785 73.2001 101.195 75.3836 101.052 77.0129C100.873 79.0619 102.208 80.8415 104.1 81.539C108.365 83.1124 113.202 82.2371 115.513 78.8065ZM113.206 89.5061C113.651 88.8463 113.812 88.0748 113.653 87.3276C113.494 86.5792 113.019 85.879 112.234 85.3498C111.452 84.8233 110.493 84.5529 109.616 84.5738C108.743 84.5947 107.901 84.9095 107.427 85.6127C106.953 86.3159 106.978 87.2147 107.286 88.0319C107.597 88.8528 108.207 89.6395 108.989 90.1658C109.775 90.6953 110.602 90.8724 111.355 90.739C112.107 90.6052 112.762 90.166 113.206 89.5061ZM121.11 87.1283C121.554 86.4685 121.716 85.6969 121.557 84.9498C121.398 84.2014 120.923 83.5012 120.137 82.972C119.356 82.4454 118.397 82.1751 117.52 82.1959C116.646 82.2169 115.804 82.5317 115.33 83.2349C114.857 83.9381 114.881 84.8369 115.19 85.654C115.5 86.475 116.111 87.2617 116.892 87.788C117.678 88.3175 118.506 88.4946 119.259 88.3612C120.011 88.2274 120.665 87.7881 121.11 87.1283Z" fill="black"/>
</g>
<g clip-path="url(#clip3_215_2)">
<path d="M186.328 43.8672C185.883 44.527 185.229 44.9663 184.476 45.1C183.723 45.2335 182.896 45.0563 182.111 44.5271C181.329 44.0006 180.718 43.2139 180.408 42.3929C180.099 41.5758 180.075 40.6769 180.548 39.9737C181.022 39.2706 181.864 38.9557 182.737 38.9348C183.615 38.9139 184.573 39.1843 185.355 39.7106C186.141 40.2401 186.616 40.9402 186.774 41.6887C186.934 42.4358 186.772 43.2073 186.328 43.8672ZM185.562 35.6492C185.118 36.309 184.463 36.7483 183.711 36.8821C182.958 37.0155 182.13 36.8384 181.345 36.3092C180.563 35.7826 179.953 34.9959 179.642 34.1749C179.334 33.3578 179.309 32.459 179.783 31.7558C180.256 31.0526 181.099 30.7378 181.972 30.7168C182.849 30.696 183.808 30.9667 184.589 31.4926C185.375 32.0221 185.85 32.7223 186.009 33.4707C186.168 34.2178 186.007 34.9894 185.562 35.6492ZM176.513 41.8065C178.824 38.3754 177.818 33.565 174.758 30.2027C173.401 28.7112 171.25 28.1424 169.418 29.079C167.962 29.8227 166.16 31.1898 164.473 33.6947C162.785 36.2001 162.195 38.3836 162.052 40.0129C161.873 42.0619 163.208 43.8415 165.1 44.539C169.365 46.1124 174.202 45.2371 176.513 41.8065ZM174.206 52.5061C174.651 51.8463 174.812 51.0748 174.653 50.3276C174.494 49.5792 174.019 48.879 173.234 48.3498C172.452 47.8233 171.493 47.5529 170.616 47.5738C169.743 47.5947 168.901 47.9095 168.427 48.6127C167.953 49.3159 167.978 50.2147 168.286 51.0319C168.597 51.8528 169.207 52.6395 169.989 53.1658C170.775 53.6953 171.602 53.8724 172.355 53.739C173.107 53.6052 173.762 53.166 174.206 52.5061ZM182.11 50.1283C182.554 49.4685 182.716 48.6969 182.557 47.9498C182.398 47.2014 181.923 46.5012 181.137 45.972C180.356 45.4454 179.397 45.1751 178.52 45.1959C177.646 45.2169 176.804 45.5317 176.33 46.2349C175.857 46.9381 175.881 47.8369 176.19 48.654C176.5 49.475 177.111 50.2617 177.892 50.788C178.678 51.3175 179.506 51.4946 180.259 51.3612C181.011 51.2274 181.665 50.7881 182.11 50.1283Z" fill="black"/>
</g>
<g clip-path="url(#clip4_215_2)">
<path d="M218.328 101.867C217.883 102.527 217.229 102.966 216.476 103.1C215.723 103.233 214.896 103.056 214.111 102.527C213.329 102.001 212.718 101.214 212.408 100.393C212.099 99.5758 212.075 98.6769 212.548 97.9737C213.022 97.2706 213.864 96.9557 214.737 96.9348C215.615 96.9139 216.573 97.1843 217.355 97.7106C218.141 98.2401 218.616 98.9402 218.774 99.6887C218.934 100.436 218.772 101.207 218.328 101.867ZM217.562 93.6492C217.118 94.309 216.463 94.7483 215.711 94.8821C214.958 95.0155 214.13 94.8384 213.345 94.3092C212.563 93.7826 211.953 92.9959 211.642 92.1749C211.334 91.3578 211.309 90.459 211.783 89.7558C212.256 89.0526 213.099 88.7378 213.972 88.7168C214.849 88.696 215.808 88.9667 216.589 89.4926C217.375 90.0221 217.85 90.7223 218.009 91.4707C218.168 92.2178 218.007 92.9894 217.562 93.6492ZM208.513 99.8065C210.824 96.3754 209.818 91.565 206.758 88.2027C205.401 86.7112 203.25 86.1424 201.418 87.079C199.962 87.8227 198.16 89.1898 196.473 91.6947C194.785 94.2001 194.195 96.3836 194.052 98.0129C193.873 100.062 195.208 101.841 197.1 102.539C201.365 104.112 206.202 103.237 208.513 99.8065ZM206.206 110.506C206.651 109.846 206.812 109.075 206.653 108.328C206.494 107.579 206.019 106.879 205.234 106.35C204.452 105.823 203.493 105.553 202.616 105.574C201.743 105.595 200.901 105.91 200.427 106.613C199.953 107.316 199.978 108.215 200.286 109.032C200.597 109.853 201.207 110.64 201.989 111.166C202.775 111.695 203.602 111.872 204.355 111.739C205.107 111.605 205.762 111.166 206.206 110.506ZM214.11 108.128C214.554 107.468 214.716 106.697 214.557 105.95C214.398 105.201 213.923 104.501 213.137 103.972C212.356 103.445 211.397 103.175 210.52 103.196C209.646 103.217 208.804 103.532 208.33 104.235C207.857 104.938 207.881 105.837 208.19 106.654C208.5 107.475 209.111 108.262 209.892 108.788C210.678 109.317 211.506 109.495 212.259 109.361C213.011 109.227 213.665 108.788 214.11 108.128Z" fill="black"/>
</g>
<g clip-path="url(#clip5_215_2)">
<path d="M299.328 74.8672C298.883 75.527 298.229 75.9663 297.476 76.1C296.723 76.2335 295.896 76.0563 295.111 75.5271C294.329 75.0006 293.718 74.2139 293.408 73.3929C293.099 72.5758 293.075 71.6769 293.548 70.9737C294.022 70.2706 294.864 69.9557 295.737 69.9348C296.615 69.9139 297.573 70.1843 298.355 70.7106C299.141 71.2401 299.616 71.9402 299.774 72.6887C299.934 73.4358 299.772 74.2073 299.328 74.8672ZM298.562 66.6492C298.118 67.309 297.463 67.7483 296.711 67.8821C295.958 68.0155 295.13 67.8384 294.345 67.3092C293.563 66.7826 292.953 65.9959 292.642 65.1749C292.334 64.3578 292.309 63.459 292.783 62.7558C293.256 62.0526 294.099 61.7378 294.972 61.7168C295.849 61.696 296.808 61.9667 297.589 62.4926C298.375 63.0221 298.85 63.7223 299.009 64.4707C299.168 65.2178 299.007 65.9894 298.562 66.6492ZM289.513 72.8065C291.824 69.3754 290.818 64.565 287.758 61.2027C286.401 59.7112 284.25 59.1424 282.418 60.079C280.962 60.8227 279.16 62.1898 277.473 64.6947C275.785 67.2001 275.195 69.3836 275.052 71.0129C274.873 73.0619 276.208 74.8415 278.1 75.539C282.365 77.1124 287.202 76.2371 289.513 72.8065ZM287.206 83.5061C287.651 82.8463 287.812 82.0748 287.653 81.3276C287.494 80.5792 287.019 79.879 286.234 79.3498C285.452 78.8233 284.493 78.5529 283.616 78.5738C282.743 78.5947 281.901 78.9095 281.427 79.6127C280.953 80.3159 280.978 81.2147 281.286 82.0319C281.597 82.8528 282.207 83.6395 282.989 84.1658C283.775 84.6953 284.602 84.8724 285.355 84.739C286.107 84.6052 286.762 84.166 287.206 83.5061ZM295.11 81.1283C295.554 80.4685 295.716 79.6969 295.557 78.9498C295.398 78.2014 294.923 77.5012 294.137 76.972C293.356 76.4454 292.397 76.1751 291.52 76.1959C290.646 76.2169 289.804 76.5317 289.33 77.2349C288.857 77.9381 288.881 78.8369 289.19 79.654C289.5 80.475 290.111 81.2617 290.892 81.788C291.678 82.3175 292.506 82.4946 293.259 82.3612C294.011 82.2274 294.665 81.7881 295.11 81.1283Z" fill="black"/>
</g>
<g clip-path="url(#clip6_215_2)">
<path d="M333.328 136.867C332.883 137.527 332.229 137.966 331.476 138.1C330.723 138.233 329.896 138.056 329.111 137.527C328.329 137.001 327.718 136.214 327.408 135.393C327.099 134.576 327.075 133.677 327.548 132.974C328.022 132.271 328.864 131.956 329.737 131.935C330.615 131.914 331.573 132.184 332.355 132.711C333.141 133.24 333.616 133.94 333.774 134.689C333.934 135.436 333.772 136.207 333.328 136.867ZM332.562 128.649C332.118 129.309 331.463 129.748 330.711 129.882C329.958 130.016 329.13 129.838 328.345 129.309C327.563 128.783 326.953 127.996 326.642 127.175C326.334 126.358 326.309 125.459 326.783 124.756C327.256 124.053 328.099 123.738 328.972 123.717C329.849 123.696 330.808 123.967 331.589 124.493C332.375 125.022 332.85 125.722 333.009 126.471C333.168 127.218 333.007 127.989 332.562 128.649ZM323.513 134.807C325.824 131.375 324.818 126.565 321.758 123.203C320.401 121.711 318.25 121.142 316.418 122.079C314.962 122.823 313.16 124.19 311.473 126.695C309.785 129.2 309.195 131.384 309.052 133.013C308.873 135.062 310.208 136.841 312.1 137.539C316.365 139.112 321.202 138.237 323.513 134.807ZM321.206 145.506C321.651 144.846 321.812 144.075 321.653 143.328C321.494 142.579 321.019 141.879 320.234 141.35C319.452 140.823 318.493 140.553 317.616 140.574C316.743 140.595 315.901 140.91 315.427 141.613C314.953 142.316 314.978 143.215 315.286 144.032C315.597 144.853 316.207 145.64 316.989 146.166C317.775 146.695 318.602 146.872 319.355 146.739C320.107 146.605 320.762 146.166 321.206 145.506ZM329.11 143.128C329.554 142.468 329.716 141.697 329.557 140.95C329.398 140.201 328.923 139.501 328.137 138.972C327.356 138.445 326.397 138.175 325.52 138.196C324.646 138.217 323.804 138.532 323.33 139.235C322.857 139.938 322.881 140.837 323.19 141.654C323.5 142.475 324.111 143.262 324.892 143.788C325.678 144.317 326.506 144.495 327.259 144.361C328.011 144.227 328.665 143.788 329.11 143.128Z" fill="black"/>
</g>
<g clip-path="url(#clip7_215_2)">
<path d="M412.328 112.867C411.883 113.527 411.229 113.966 410.476 114.1C409.723 114.233 408.896 114.056 408.111 113.527C407.329 113.001 406.718 112.214 406.408 111.393C406.099 110.576 406.075 109.677 406.548 108.974C407.022 108.271 407.864 107.956 408.737 107.935C409.615 107.914 410.573 108.184 411.355 108.711C412.141 109.24 412.616 109.94 412.774 110.689C412.934 111.436 412.772 112.207 412.328 112.867ZM411.562 104.649C411.118 105.309 410.463 105.748 409.711 105.882C408.958 106.016 408.13 105.838 407.345 105.309C406.563 104.783 405.953 103.996 405.642 103.175C405.334 102.358 405.309 101.459 405.783 100.756C406.256 100.053 407.099 99.7378 407.972 99.7168C408.849 99.696 409.808 99.9667 410.589 100.493C411.375 101.022 411.85 101.722 412.009 102.471C412.168 103.218 412.007 103.989 411.562 104.649ZM402.513 110.807C404.824 107.375 403.818 102.565 400.758 99.2027C399.401 97.7112 397.25 97.1424 395.418 98.079C393.962 98.8227 392.16 100.19 390.473 102.695C388.785 105.2 388.195 107.384 388.052 109.013C387.873 111.062 389.208 112.841 391.1 113.539C395.365 115.112 400.202 114.237 402.513 110.807ZM400.206 121.506C400.651 120.846 400.812 120.075 400.653 119.328C400.494 118.579 400.019 117.879 399.234 117.35C398.452 116.823 397.493 116.553 396.616 116.574C395.743 116.595 394.901 116.91 394.427 117.613C393.953 118.316 393.978 119.215 394.286 120.032C394.597 120.853 395.207 121.64 395.989 122.166C396.775 122.695 397.602 122.872 398.355 122.739C399.107 122.605 399.762 122.166 400.206 121.506ZM408.11 119.128C408.554 118.468 408.716 117.697 408.557 116.95C408.398 116.201 407.923 115.501 407.137 114.972C406.356 114.445 405.397 114.175 404.52 114.196C403.646 114.217 402.804 114.532 402.33 115.235C401.857 115.938 401.881 116.837 402.19 117.654C402.5 118.475 403.111 119.262 403.892 119.788C404.678 120.317 405.506 120.495 406.259 120.361C407.011 120.227 407.665 119.788 408.11 119.128Z" fill="black"/>
</g>
<defs>
<clipPath id="clip0_215_2">
<rect width="27.8744" height="27.8744" fill="white" transform="translate(38.6914 50.5742) rotate(123.967)"/>
</clipPath>
<clipPath id="clip1_215_2">
<rect width="27.8744" height="27.8744" fill="white" transform="translate(95.6914 15.5742) rotate(123.967)"/>
</clipPath>
<clipPath id="clip2_215_2">
<rect width="27.8744" height="27.8744" fill="white" transform="translate(132.691 73.5742) rotate(123.967)"/>
</clipPath>
<clipPath id="clip3_215_2">
<rect width="27.8744" height="27.8744" fill="white" transform="translate(193.691 36.5742) rotate(123.967)"/>
</clipPath>
<clipPath id="clip4_215_2">
<rect width="27.8744" height="27.8744" fill="white" transform="translate(225.691 94.5742) rotate(123.967)"/>
</clipPath>
<clipPath id="clip5_215_2">
<rect width="27.8744" height="27.8744" fill="white" transform="translate(306.691 67.5742) rotate(123.967)"/>
</clipPath>
<clipPath id="clip6_215_2">
<rect width="27.8744" height="27.8744" fill="white" transform="translate(340.691 129.574) rotate(123.967)"/>
</clipPath>
<clipPath id="clip7_215_2">
<rect width="27.8744" height="27.8744" fill="white" transform="translate(419.691 105.574) rotate(123.967)"/>
</clipPath>
</defs>
</svg>
